<?xml version="1.0" encoding="UTF-8" standalone="no"?>
<!-- Created with Inkscape (http://www.inkscape.org/) -->

<svg
   xmlns:dc="http://purl.org/dc/elements/1.1/"
   xmlns:cc="http://creativecommons.org/ns#"
   xmlns:rdf="http://www.w3.org/1999/02/22-rdf-syntax-ns#"
   xmlns:svg="http://www.w3.org/2000/svg"
   xmlns="http://www.w3.org/2000/svg"
   xmlns:sodipodi="http://sodipodi.sourceforge.net/DTD/sodipodi-0.dtd"
   xmlns:inkscape="http://www.inkscape.org/namespaces/inkscape"
   width="62.783916mm"
   height="44.35104mm"
   viewBox="0 0 62.783916 44.35104"
   version="1.1"
   id="svg4683"
   inkscape:version="0.92.1 r"
   sodipodi:docname="constituent.svg">
  <defs
     id="defs4677">
    <inkscape:path-effect
       effect="bspline"
       id="path-effect4637"
       is_visible="true"
       weight="33.333333"
       steps="2"
       helper_size="0"
       apply_no_weight="true"
       apply_with_weight="true"
       only_selected="false" />
    <inkscape:path-effect
       effect="bspline"
       id="path-effect4633"
       is_visible="true"
       weight="33.333333"
       steps="2"
       helper_size="0"
       apply_no_weight="true"
       apply_with_weight="true"
       only_selected="false" />
    <inkscape:path-effect
       effect="bspline"
       id="path-effect4629"
       is_visible="true"
       weight="33.333333"
       steps="2"
       helper_size="0"
       apply_no_weight="true"
       apply_with_weight="true"
       only_selected="false" />
    <inkscape:path-effect
       effect="bspline"
       id="path-effect4625"
       is_visible="true"
       weight="33.333333"
       steps="2"
       helper_size="0"
       apply_no_weight="true"
       apply_with_weight="true"
       only_selected="false" />
    <inkscape:path-effect
       effect="bspline"
       id="path-effect4621"
       is_visible="true"
       weight="33.333333"
       steps="2"
       helper_size="0"
       apply_no_weight="true"
       apply_with_weight="true"
       only_selected="false" />
    <inkscape:path-effect
       effect="bspline"
       id="path-effect4617"
       is_visible="true"
       weight="33.333333"
       steps="2"
       helper_size="0"
       apply_no_weight="true"
       apply_with_weight="true"
       only_selected="false" />
    <inkscape:path-effect
       effect="bspline"
       id="path-effect4613"
       is_visible="true"
       weight="33.333333"
       steps="2"
       helper_size="0"
       apply_no_weight="true"
       apply_with_weight="true"
       only_selected="false" />
    <inkscape:path-effect
       effect="bspline"
       id="path-effect4609"
       is_visible="true"
       weight="33.333333"
       steps="2"
       helper_size="0"
       apply_no_weight="true"
       apply_with_weight="true"
       only_selected="false" />
    <inkscape:path-effect
       effect="bspline"
       id="path-effect4605"
       is_visible="true"
       weight="33.333333"
       steps="2"
       helper_size="0"
       apply_no_weight="true"
       apply_with_weight="true"
       only_selected="false" />
    <inkscape:path-effect
       effect="bspline"
       id="path-effect4601"
       is_visible="true"
       weight="33.333333"
       steps="2"
       helper_size="0"
       apply_no_weight="true"
       apply_with_weight="true"
       only_selected="false" />
    <inkscape:path-effect
       effect="bspline"
       id="path-effect4597"
       is_visible="true"
       weight="33.333333"
       steps="2"
       helper_size="0"
       apply_no_weight="true"
       apply_with_weight="true"
       only_selected="false" />
    <inkscape:path-effect
       effect="bspline"
       id="path-effect4581"
       is_visible="true"
       weight="33.333333"
       steps="2"
       helper_size="0"
       apply_no_weight="true"
       apply_with_weight="true"
       only_selected="false" />
    <inkscape:path-effect
       effect="bspline"
       id="path-effect4577"
       is_visible="true"
       weight="33.333333"
       steps="2"
       helper_size="0"
       apply_no_weight="true"
       apply_with_weight="true"
       only_selected="false" />
    <inkscape:path-effect
       effect="bspline"
       id="path-effect4573"
       is_visible="true"
       weight="33.333333"
       steps="2"
       helper_size="0"
       apply_no_weight="true"
       apply_with_weight="true"
       only_selected="false" />
    <inkscape:path-effect
       effect="bspline"
       id="path-effect4569"
       is_visible="true"
       weight="33.333333"
       steps="2"
       helper_size="0"
       apply_no_weight="true"
       apply_with_weight="true"
       only_selected="false" />
    <inkscape:path-effect
       effect="bspline"
       id="path-effect4565"
       is_visible="true"
       weight="33.333333"
       steps="2"
       helper_size="0"
       apply_no_weight="true"
       apply_with_weight="true"
       only_selected="false" />
    <inkscape:path-effect
       effect="bspline"
       id="path-effect5650"
       is_visible="true"
       weight="33.333333"
       steps="2"
       helper_size="0"
       apply_no_weight="true"
       apply_with_weight="true"
       only_selected="false" />
    <inkscape:path-effect
       effect="bspline"
       id="path-effect5646"
       is_visible="true"
       weight="33.333333"
       steps="2"
       helper_size="0"
       apply_no_weight="true"
       apply_with_weight="true"
       only_selected="false" />
    <inkscape:path-effect
       effect="bspline"
       id="path-effect5618"
       is_visible="true"
       weight="33.333333"
       steps="2"
       helper_size="0"
       apply_no_weight="true"
       apply_with_weight="true"
       only_selected="false" />
    <inkscape:path-effect
       effect="bspline"
       id="path-effect5614"
       is_visible="true"
       weight="33.333333"
       steps="2"
       helper_size="0"
       apply_no_weight="true"
       apply_with_weight="true"
       only_selected="false" />
    <inkscape:path-effect
       effect="bspline"
       id="path-effect5610"
       is_visible="true"
       weight="33.333333"
       steps="2"
       helper_size="0"
       apply_no_weight="true"
       apply_with_weight="true"
       only_selected="false" />
    <inkscape:path-effect
       effect="bspline"
       id="path-effect5606"
       is_visible="true"
       weight="33.333333"
       steps="2"
       helper_size="0"
       apply_no_weight="true"
       apply_with_weight="true"
       only_selected="false" />
    <inkscape:path-effect
       effect="bspline"
       id="path-effect5602"
       is_visible="true"
       weight="33.333333"
       steps="2"
       helper_size="0"
       apply_no_weight="true"
       apply_with_weight="true"
       only_selected="false" />
    <inkscape:path-effect
       effect="bspline"
       id="path-effect5560"
       is_visible="true"
       weight="33.333333"
       steps="2"
       helper_size="0"
       apply_no_weight="true"
       apply_with_weight="true"
       only_selected="false" />
    <inkscape:path-effect
       effect="bspline"
       id="path-effect5556"
       is_visible="true"
       weight="33.333333"
       steps="2"
       helper_size="0"
       apply_no_weight="true"
       apply_with_weight="true"
       only_selected="false" />
    <inkscape:path-effect
       effect="bspline"
       id="path-effect5426"
       is_visible="true"
       weight="33.333333"
       steps="2"
       helper_size="0"
       apply_no_weight="true"
       apply_with_weight="true"
       only_selected="false" />
    <inkscape:path-effect
       effect="bspline"
       id="path-effect5422"
       is_visible="true"
       weight="33.333333"
       steps="2"
       helper_size="0"
       apply_no_weight="true"
       apply_with_weight="true"
       only_selected="false" />
    <inkscape:path-effect
       effect="bspline"
       id="path-effect5426-3"
       is_visible="true"
       weight="33.333333"
       steps="2"
       helper_size="0"
       apply_no_weight="true"
       apply_with_weight="true"
       only_selected="false" />
    <inkscape:path-effect
       effect="bspline"
       id="path-effect5426-7"
       is_visible="true"
       weight="33.333333"
       steps="2"
       helper_size="0"
       apply_no_weight="true"
       apply_with_weight="true"
       only_selected="false" />
    <inkscape:path-effect
       effect="bspline"
       id="path-effect5426-7-3"
       is_visible="true"
       weight="33.333333"
       steps="2"
       helper_size="0"
       apply_no_weight="true"
       apply_with_weight="true"
       only_selected="false" />
    <inkscape:path-effect
       effect="bspline"
       id="path-effect5426-7-6"
       is_visible="true"
       weight="33.333333"
       steps="2"
       helper_size="0"
       apply_no_weight="true"
       apply_with_weight="true"
       only_selected="false" />
  </defs>
  <sodipodi:namedview
     id="base"
     pagecolor="#ffffff"
     bordercolor="#666666"
     borderopacity="1.0"
     inkscape:pageopacity="0.0"
     inkscape:pageshadow="2"
     inkscape:zoom="2.8"
     inkscape:cx="60.357663"
     inkscape:cy="30.398902"
     inkscape:document-units="mm"
     inkscape:current-layer="layer1"
     showgrid="false"
     inkscape:window-width="1918"
     inkscape:window-height="1060"
     inkscape:window-x="0"
     inkscape:window-y="18"
     inkscape:window-maximized="1" />
  <metadata
     id="metadata4680">
    <rdf:RDF>
      <cc:Work
         rdf:about="">
        <dc:format>image/svg+xml</dc:format>
        <dc:type
           rdf:resource="http://purl.org/dc/dcmitype/StillImage" />
        <dc:title></dc:title>
      </cc:Work>
    </rdf:RDF>
  </metadata>
  <g
     inkscape:label="Layer 1"
     inkscape:groupmode="layer"
     id="layer1"
     transform="translate(-74.359704,-123.92127)">
    <g
       aria-label="The"
       style="text-anchor:middle"
       id="text4"
       transform="matrix(0.26458333,0,0,0.26458333,51.901644,142.49884)">
      <path
         inkscape:connector-curvature="0"
         d="m 88.642578,58.821983 h -1.083984 v -7.617187 h -2.677735 v -0.949219 h 6.421875 v 0.949219 h -2.660156 z"
         style="text-anchor:middle"
         id="path4687" />
      <path
         inkscape:connector-curvature="0"
         d="m 96.845703,58.821983 v -4.113281 q 0,-0.785156 -0.351562,-1.166016 -0.345704,-0.386718 -1.089844,-0.386718 -0.978516,0 -1.435547,0.544922 -0.451172,0.544921 -0.451172,1.798828 v 3.322265 h -1.054687 v -9.117187 h 1.054687 v 2.671875 q 0,0.527344 -0.05859,0.902344 h 0.07031 q 0.287109,-0.46875 0.814453,-0.732422 0.527344,-0.263672 1.189453,-0.263672 1.171875,0 1.763672,0.5625 0.591797,0.55664 0.591797,1.787109 v 4.189453 z"
         style="text-anchor:middle"
         id="path4689" />
      <path
         inkscape:connector-curvature="0"
         d="m 102.62891,58.939171 q -1.44727,0 -2.27344,-0.873047 -0.820314,-0.878906 -0.820314,-2.414063 0,-1.546875 0.767574,-2.460937 0.76758,-0.919922 2.07422,-0.919922 1.21289,0 1.9336,0.785156 0.7207,0.779297 0.7207,2.115235 v 0.638672 H 100.625 q 0.0293,1.095703 0.55664,1.664062 0.52734,0.568359 1.49414,0.568359 0.51563,0 0.97852,-0.08789 0.46289,-0.09375 1.08398,-0.357422 v 0.925781 q -0.5332,0.228516 -1.00195,0.322266 -0.46875,0.09375 -1.10742,0.09375 z m -0.26368,-5.806641 q -0.75585,0 -1.19531,0.486328 -0.43945,0.486328 -0.52148,1.353516 h 3.27539 q -0.0117,-0.902344 -0.41602,-1.371094 -0.40429,-0.46875 -1.14258,-0.46875 z"
         style="text-anchor:middle"
         id="path4691" />
    </g>
    <g
       aria-label="chef"
       style="text-anchor:middle"
       id="text6"
       transform="matrix(0.26458333,0,0,0.26458333,44.746692,142.50737)">
      <path
         inkscape:connector-curvature="0"
         d="m 166.75586,58.939171 q -1.38867,0 -2.16211,-0.84961 -0.77344,-0.855468 -0.77344,-2.449218 0,-1.617188 0.7793,-2.490235 0.78516,-0.878906 2.23242,-0.878906 0.46875,0 0.92578,0.09961 0.46289,0.09375 0.76172,0.246094 l -0.32226,0.878906 q -0.81446,-0.304687 -1.38868,-0.304687 -0.97265,0 -1.43554,0.615234 -0.46289,0.609375 -0.46289,1.822266 0,1.166016 0.46289,1.787109 0.46289,0.615235 1.37109,0.615235 0.84961,0 1.66992,-0.375 v 0.9375 q -0.66797,0.345703 -1.6582,0.345702 z"
         style="text-anchor:middle"
         id="path4694" />
      <path
         inkscape:connector-curvature="0"
         d="m 174.32617,58.821983 v -4.113281 q 0,-0.785156 -0.35156,-1.166016 -0.3457,-0.386718 -1.08984,-0.386718 -0.97852,0 -1.43555,0.544922 -0.45117,0.544921 -0.45117,1.798828 v 3.322265 h -1.05469 v -9.117187 h 1.05469 v 2.671875 q 0,0.527344 -0.0586,0.902344 h 0.0703 q 0.2871,-0.46875 0.81445,-0.732422 0.52734,-0.263672 1.18945,-0.263672 1.17188,0 1.76367,0.5625 0.5918,0.55664 0.5918,1.787109 v 4.189453 z"
         style="text-anchor:middle"
         id="path4696" />
      <path
         inkscape:connector-curvature="0"
         d="m 180.10937,58.939171 q -1.44726,0 -2.27343,-0.873047 -0.82032,-0.878906 -0.82032,-2.414063 0,-1.546875 0.76758,-2.460937 0.76758,-0.919922 2.07422,-0.919922 1.21289,0 1.9336,0.785156 0.7207,0.779297 0.7207,2.115235 v 0.638672 h -4.40625 q 0.0293,1.095703 0.55664,1.664062 0.52734,0.568359 1.49414,0.568359 0.51562,0 0.97852,-0.08789 0.46289,-0.09375 1.08398,-0.357422 v 0.925781 q -0.5332,0.228516 -1.00195,0.322266 -0.46875,0.09375 -1.10743,0.09375 z M 179.8457,53.13253 q -0.75586,0 -1.19531,0.486328 -0.43945,0.486328 -0.52148,1.353516 h 3.27539 q -0.0117,-0.902344 -0.41602,-1.371094 -0.4043,-0.46875 -1.14258,-0.46875 z"
         style="text-anchor:middle"
         id="path4698" />
      <path
         inkscape:connector-curvature="0"
         d="m 187.11133,53.208702 h -1.62305 v 5.613281 h -1.05469 v -5.613281 h -1.125 v -0.492187 l 1.125,-0.363282 v -0.36914 q 0,-1.171875 0.50977,-1.757813 0.51562,-0.585937 1.58203,-0.585937 0.61523,0 1.24805,0.216797 l -0.28125,0.826171 q -0.54492,-0.175781 -0.95508,-0.175781 -0.5332,0 -0.79102,0.351563 -0.25781,0.351562 -0.25781,1.113281 v 0.416016 h 1.62305 z"
         style="text-anchor:middle"
         id="path4700" />
    </g>
    <g
       aria-label="cooks"
       style="text-anchor:middle"
       id="text8"
       transform="matrix(0.26458333,0,0,0.26458333,37.953732,142.49884)">
      <path
         inkscape:connector-curvature="0"
         d="m 242.57228,58.939171 q -1.38867,0 -2.16211,-0.84961 -0.77344,-0.855468 -0.77344,-2.449218 0,-1.617188 0.7793,-2.490235 0.78516,-0.878906 2.23242,-0.878906 0.46875,0 0.92578,0.09961 0.46289,0.09375 0.76172,0.246094 l -0.32226,0.878906 q -0.81446,-0.304687 -1.38867,-0.304687 -0.97266,0 -1.43555,0.615234 -0.46289,0.609375 -0.46289,1.822266 0,1.166016 0.46289,1.787109 0.46289,0.615235 1.37109,0.615235 0.84961,0 1.66992,-0.375 v 0.9375 q -0.66796,0.345703 -1.6582,0.345702 z"
         style="text-anchor:middle"
         id="path4703" />
      <path
         inkscape:connector-curvature="0"
         d="m 251.34962,55.593468 q 0,1.576172 -0.79687,2.460937 -0.79688,0.884766 -2.20313,0.884766 -0.87304,0 -1.54687,-0.404297 -0.67383,-0.410156 -1.03711,-1.171875 -0.36328,-0.761719 -0.36328,-1.769531 0,-1.570313 0.78516,-2.44336 0.78515,-0.878906 2.20312,-0.878906 1.35938,0 2.15625,0.896484 0.80273,0.890625 0.80273,2.425782 z m -4.85742,0 q 0,1.21289 0.47461,1.845703 0.48047,0.626953 1.41211,0.626953 0.91992,0 1.40039,-0.626953 0.48047,-0.632813 0.48047,-1.845703 0,-1.212891 -0.48633,-1.822266 -0.48047,-0.615234 -1.41211,-0.615234 -1.86914,0 -1.86914,2.4375 z"
         style="text-anchor:middle"
         id="path4705" />
      <path
         inkscape:connector-curvature="0"
         d="m 258.61525,55.593468 q 0,1.576172 -0.79688,2.460937 -0.79687,0.884766 -2.20312,0.884766 -0.87305,0 -1.54688,-0.404297 -0.67382,-0.410156 -1.0371,-1.171875 -0.36329,-0.761719 -0.36329,-1.769531 0,-1.570313 0.78516,-2.44336 0.78516,-0.878906 2.20313,-0.878906 1.35937,0 2.15625,0.896484 0.80273,0.890625 0.80273,2.425782 z m -4.85742,0 q 0,1.21289 0.47461,1.845703 0.48047,0.626953 1.41211,0.626953 0.91992,0 1.40039,-0.626953 0.48047,-0.632813 0.48047,-1.845703 0,-1.212891 -0.48633,-1.822266 -0.48047,-0.615234 -1.41211,-0.615234 -1.86914,0 -1.86914,2.4375 z"
         style="text-anchor:middle"
         id="path4707" />
      <path
         inkscape:connector-curvature="0"
         d="m 261.334,55.511436 0.35742,-0.457031 0.41016,-0.492187 2.05664,-2.173828 h 1.23047 l -2.60157,2.748046 2.78321,3.685547 h -1.27149 l -2.23242,-3 -0.73242,0.638672 v 2.361328 h -1.04297 v -9.117187 h 1.04297 v 4.763672 l -0.0469,1.042968 z"
         style="text-anchor:middle"
         id="path4709" />
      <path
         inkscape:connector-curvature="0"
         d="m 270.90236,57.046593 q 0,0.902343 -0.67383,1.40039 -0.67383,0.492188 -1.89258,0.492188 -1.27148,0 -2.02148,-0.404297 v -0.960938 q 1.06055,0.515625 2.04492,0.515625 0.79688,0 1.16016,-0.257812 0.36328,-0.257813 0.36328,-0.691406 0,-0.38086 -0.35156,-0.644532 -0.34571,-0.263671 -1.23633,-0.603515 -0.90821,-0.351563 -1.27735,-0.597656 -0.36914,-0.251954 -0.54492,-0.5625 -0.16992,-0.310547 -0.16992,-0.75586 0,-0.791015 0.64453,-1.248047 0.64453,-0.457031 1.76953,-0.457031 1.09571,0 2.05078,0.433594 l -0.35742,0.83789 q -0.97851,-0.410156 -1.76367,-0.410156 -0.65625,0 -0.99609,0.210938 -0.33985,0.205078 -0.33985,0.568359 0,0.351563 0.29297,0.585938 0.29297,0.228515 1.36524,0.638671 0.80273,0.298829 1.18359,0.556641 0.38672,0.257813 0.56836,0.580078 0.18164,0.322266 0.18164,0.773438 z"
         style="text-anchor:middle"
         id="path4711" />
    </g>
    <g
       aria-label="the"
       style="text-anchor:middle"
       id="text10"
       transform="matrix(0.26458333,0,0,0.26458333,30.716142,151.99017)">
      <path
         inkscape:connector-curvature="0"
         d="m 329.10547,58.077843 q 0.20508,0 0.48047,-0.04102 0.27539,-0.04102 0.41601,-0.09375 v 0.808594 q -0.14648,0.06445 -0.45703,0.123047 -0.30469,0.06445 -0.62109,0.06445 -1.88672,0 -1.88672,-1.986328 v -3.744141 h -0.9082 v -0.503906 l 0.91992,-0.421875 0.42187,-1.371094 h 0.62696 v 1.476563 h 1.85742 v 0.820312 h -1.85742 v 3.714844 q 0,0.55664 0.26367,0.855469 0.26953,0.298828 0.74414,0.298828 z"
         style="text-anchor:middle"
         id="path4714" />
      <path
         inkscape:connector-curvature="0"
         d="m 335.67383,58.821983 v -4.113281 q 0,-0.785156 -0.35156,-1.166016 -0.34571,-0.386718 -1.08985,-0.386718 -0.97851,0 -1.43555,0.544922 -0.45117,0.544921 -0.45117,1.798828 v 3.322265 h -1.05468 v -9.117187 h 1.05468 v 2.671875 q 0,0.527344 -0.0586,0.902344 h 0.0703 q 0.28711,-0.46875 0.81445,-0.732422 0.52735,-0.263672 1.18946,-0.263672 1.17187,0 1.76367,0.5625 0.5918,0.55664 0.5918,1.787109 v 4.189453 z"
         style="text-anchor:middle"
         id="path4716" />
      <path
         inkscape:connector-curvature="0"
         d="m 341.45703,58.939171 q -1.44726,0 -2.27344,-0.873047 -0.82031,-0.878906 -0.82031,-2.414063 0,-1.546875 0.76758,-2.460937 0.76758,-0.919922 2.07422,-0.919922 1.21289,0 1.93359,0.785156 0.7207,0.779297 0.7207,2.115235 v 0.638672 h -4.40625 q 0.0293,1.095703 0.55665,1.664062 0.52734,0.568359 1.49414,0.568359 0.51562,0 0.97851,-0.08789 0.46289,-0.09375 1.08399,-0.357422 v 0.925781 q -0.53321,0.228516 -1.00196,0.322266 -0.46875,0.09375 -1.10742,0.09375 z m -0.26367,-5.806641 q -0.75586,0 -1.19531,0.486328 -0.43946,0.486328 -0.52149,1.353516 h 3.27539 q -0.0117,-0.902344 -0.41601,-1.371094 -0.4043,-0.46875 -1.14258,-0.46875 z"
         style="text-anchor:middle"
         id="path4718" />
    </g>
    <g
       aria-label="soup"
       style="text-anchor:middle"
       id="text12"
       transform="matrix(0.26458333,0,0,0.26458333,23.78206,151.94625)">
      <path
         inkscape:connector-curvature="0"
         d="m 406.50391,57.046593 q 0,0.902343 -0.67383,1.40039 -0.67383,0.492188 -1.89258,0.492188 -1.27148,0 -2.02148,-0.404297 v -0.960938 q 1.06054,0.515625 2.04492,0.515625 0.79687,0 1.16015,-0.257812 0.36328,-0.257813 0.36328,-0.691406 0,-0.38086 -0.35156,-0.644532 -0.3457,-0.263671 -1.23633,-0.603515 -0.9082,-0.351563 -1.27734,-0.597656 -0.36914,-0.251954 -0.54492,-0.5625 -0.16992,-0.310547 -0.16992,-0.75586 0,-0.791015 0.64453,-1.248047 0.64453,-0.457031 1.76953,-0.457031 1.0957,0 2.05078,0.433594 l -0.35742,0.83789 q -0.97852,-0.410156 -1.76367,-0.410156 -0.65625,0 -0.9961,0.210938 -0.33984,0.205078 -0.33984,0.568359 0,0.351563 0.29297,0.585938 0.29297,0.228515 1.36523,0.638671 0.80274,0.298829 1.1836,0.556641 0.38671,0.257813 0.56836,0.580078 0.18164,0.322266 0.18164,0.773438 z"
         style="text-anchor:middle"
         id="path4721" />
      <path
         inkscape:connector-curvature="0"
         d="m 413.64648,55.593468 q 0,1.576172 -0.79687,2.460937 -0.79688,0.884766 -2.20313,0.884766 -0.87304,0 -1.54687,-0.404297 -0.67383,-0.410156 -1.03711,-1.171875 -0.36328,-0.761719 -0.36328,-1.769531 0,-1.570313 0.78515,-2.44336 0.78516,-0.878906 2.20313,-0.878906 1.35937,0 2.15625,0.896484 0.80273,0.890625 0.80273,2.425782 z m -4.85742,0 q 0,1.21289 0.47461,1.845703 0.48047,0.626953 1.41211,0.626953 0.91992,0 1.40039,-0.626953 0.48047,-0.632813 0.48047,-1.845703 0,-1.212891 -0.48633,-1.822266 -0.48047,-0.615234 -1.41211,-0.615234 -1.86914,0 -1.86914,2.4375 z"
         style="text-anchor:middle"
         id="path4723" />
      <path
         inkscape:connector-curvature="0"
         d="m 416.31836,52.38839 v 4.142578 q 0,0.779297 0.3457,1.160156 0.35156,0.375 1.08399,0.375 0.99023,0 1.4414,-0.550781 0.45117,-0.550782 0.45117,-1.775391 V 52.38839 h 1.06055 v 6.433593 h -0.86719 l -0.15234,-0.849609 h -0.0527 q -0.28711,0.462891 -0.81446,0.714844 -0.52734,0.251953 -1.22461,0.251953 -1.16015,0 -1.75195,-0.556641 -0.58594,-0.55664 -0.58594,-1.78125 v -4.21289 z"
         style="text-anchor:middle"
         id="path4725" />
      <path
         inkscape:connector-curvature="0"
         d="m 425.79883,58.939171 q -1.29492,0 -1.99219,-0.931641 h -0.0703 l 0.0234,0.240235 q 0.0469,0.457031 0.0469,0.814453 v 2.642578 h -1.05469 V 52.38839 h 0.86719 l 0.14063,0.878906 h 0.0469 q 0.375,-0.527344 0.86719,-0.761719 0.49219,-0.234375 1.13672,-0.234375 1.2539,0 1.94531,0.873047 0.69726,0.867187 0.69726,2.449219 0,1.576172 -0.69726,2.460937 -0.69727,0.884766 -1.95703,0.884766 z m -0.17578,-5.783203 q -0.95508,0 -1.38282,0.539062 -0.42187,0.539063 -0.43359,1.69336 v 0.205078 q 0,1.30664 0.43359,1.892578 0.4336,0.580078 1.40625,0.580078 0.8086,0 1.25977,-0.65625 0.45703,-0.65625 0.45703,-1.828125 0,-1.177734 -0.45703,-1.798828 -0.45117,-0.626953 -1.2832,-0.626953 z"
         style="text-anchor:middle"
         id="path4727" />
    </g>
    <path
       id="path26"
       d=""
       inkscape:connector-curvature="0"
       style="stroke-width:0.26458332" />
    <g
       id="text38"
       transform="matrix(0.26458333,0,0,0.26458333,51.901644,142.49884)" />
    <path
       id="path50"
       d=""
       inkscape:connector-curvature="0"
       style="stroke-width:0.26458332" />
    <path
       style="fill:none;fill-rule:evenodd;stroke:#000000;stroke-width:0.1;stroke-linecap:butt;stroke-linejoin:miter;stroke-opacity:1;stroke-miterlimit:4;stroke-dasharray:none"
       d="m 77.319753,154.64472 c 0,-2.07914 0,-4.15801 0,-6.23661"
       id="path5424"
       inkscape:connector-curvature="0" />
    <path
       style="fill:none;fill-rule:evenodd;stroke:#000000;stroke-width:0.1;stroke-linecap:butt;stroke-linejoin:miter;stroke-opacity:1;stroke-miterlimit:4;stroke-dasharray:none"
       d="m 91.611979,154.64472 c 0,-2.07914 0,-4.15801 0,-6.23661"
       id="path5424-6"
       inkscape:connector-curvature="0" />
    <path
       style="fill:none;fill-rule:evenodd;stroke:#000000;stroke-width:0.1;stroke-linecap:butt;stroke-linejoin:miter;stroke-opacity:1;stroke-miterlimit:4;stroke-dasharray:none"
       d="m 105.69159,154.64472 c 0,-2.07914 0,-4.15801 0,-6.23661"
       id="path5424-5"
       inkscape:connector-curvature="0" />
    <path
       style="fill:none;fill-rule:evenodd;stroke:#000000;stroke-width:0.1;stroke-linecap:butt;stroke-linejoin:miter;stroke-opacity:1;stroke-miterlimit:4;stroke-dasharray:none"
       d="m 119.72395,164.65577 c 0,-2.07914 0,-4.15801 0,-6.23661"
       id="path5424-5-5"
       inkscape:connector-curvature="0" />
    <path
       style="fill:none;fill-rule:evenodd;stroke:#000000;stroke-width:0.1;stroke-linecap:butt;stroke-linejoin:miter;stroke-opacity:1;stroke-miterlimit:4;stroke-dasharray:none"
       d="m 133.72168,164.65577 c 0,-2.07914 0,-4.15801 0,-6.23661"
       id="path5424-5-2"
       inkscape:connector-curvature="0" />
    <g
       style="font-style:normal;font-weight:normal;font-size:4.23333311px;line-height:6.61458302px;font-family:sans-serif;letter-spacing:0px;word-spacing:0px;fill:#000000;fill-opacity:1;stroke:none;stroke-width:0.26458332px;stroke-linecap:butt;stroke-linejoin:miter;stroke-opacity:1"
       id="text5486" />
    <g
       id="g5592">
      <g
         aria-label="D"
         style="font-style:normal;font-weight:normal;font-size:3.88055563px;line-height:6.61458302px;font-family:sans-serif;letter-spacing:0px;word-spacing:0px;fill:#000000;fill-opacity:1;stroke:none;stroke-width:0.26458332px;stroke-linecap:butt;stroke-linejoin:miter;stroke-opacity:1"
         id="text5482">
        <path
           d="m 78.758073,146.38226 q 0,0.68591 -0.375171,1.04972 -0.373276,0.3619 -1.072458,0.3619 h -0.771185 v -2.7702 h 0.852661 q 0.646128,0 1.00614,0.35623 0.360013,0.35432 0.360013,1.00235 z m -0.367592,0.0114 q 0,-0.52865 -0.261483,-0.79961 -0.259588,-0.27285 -0.786343,-0.27285 h -0.454752 v 2.17334 h 0.377065 q 1.125513,0 1.125513,-1.10088 z"
           style="font-size:3.88055563px;stroke-width:0.26458332px"
           id="path5658"
           inkscape:connector-curvature="0" />
      </g>
      <g
         aria-label="N"
         style="font-style:normal;font-weight:normal;font-size:3.88055563px;line-height:6.61458349px;font-family:sans-serif;letter-spacing:0px;word-spacing:0px;fill:#000000;fill-opacity:1;stroke:none;stroke-width:0.26458332px;stroke-linecap:butt;stroke-linejoin:miter;stroke-opacity:1"
         id="text5482-9">
        <path
           d="m 92.796103,147.79388 h -0.407382 l -1.483631,-2.30029 h -0.01516 l 0.0095,0.15348 q 0.02274,0.34486 0.02274,0.59876 v 1.54805 h -0.322117 v -2.7702 h 0.403593 l 0.08527,0.13453 0.909505,1.40595 0.483175,0.75223 h 0.01516 q -0.0038,-0.0455 -0.01516,-0.32401 -0.01137,-0.28043 -0.01137,-0.40548 v -1.56322 h 0.325906 z"
           style="font-size:3.88055563px;stroke-width:0.26458332px"
           id="path5661"
           inkscape:connector-curvature="0" />
      </g>
    </g>
    <g
       id="g5552">
      <g
         aria-label="D"
         style="font-style:normal;font-weight:normal;font-size:3.88055563px;line-height:6.61458349px;font-family:sans-serif;letter-spacing:0px;word-spacing:0px;fill:#000000;fill-opacity:1;stroke:none;stroke-width:0.26458332px;stroke-linecap:butt;stroke-linejoin:miter;stroke-opacity:1"
         id="text5482-0">
        <path
           d="m 120.92786,156.72877 q 0,0.68592 -0.37517,1.04972 -0.37328,0.36191 -1.07246,0.36191 h -0.77119 v -2.77021 h 0.85266 q 0.64613,0 1.00614,0.35623 0.36002,0.35433 0.36002,1.00235 z m -0.36759,0.0114 q 0,-0.52865 -0.26149,-0.79961 -0.25959,-0.27285 -0.78634,-0.27285 h -0.45475 v 2.17334 h 0.37706 q 1.12552,0 1.12552,-1.10088 z"
           style="font-size:3.88055563px;stroke-width:0.26458332px"
           id="path5664"
           inkscape:connector-curvature="0" />
      </g>
      <g
         aria-label="N"
         style="font-style:normal;font-weight:normal;font-size:3.88055563px;line-height:6.61458349px;font-family:sans-serif;letter-spacing:0px;word-spacing:0px;fill:#000000;fill-opacity:1;stroke:none;stroke-width:0.26458332px;stroke-linecap:butt;stroke-linejoin:miter;stroke-opacity:1"
         id="text5482-3">
        <path
           d="m 134.89023,158.09315 h -0.40738 l -1.48363,-2.30029 h -0.0152 l 0.009,0.15348 q 0.0227,0.34486 0.0227,0.59876 v 1.54805 h -0.32212 v -2.7702 h 0.40359 l 0.0853,0.13453 0.9095,1.40595 0.48318,0.75223 h 0.0152 q -0.004,-0.0455 -0.0152,-0.32401 -0.0114,-0.28043 -0.0114,-0.40548 v -1.56322 h 0.3259 z"
           style="font-size:3.88055563px;stroke-width:0.26458332px"
           id="path5667"
           inkscape:connector-curvature="0" />
      </g>
    </g>
    <g
       id="g5598">
      <g
         aria-label="V"
         style="font-style:normal;font-weight:normal;font-size:3.88055563px;line-height:6.61458349px;font-family:sans-serif;letter-spacing:0px;word-spacing:0px;fill:#000000;fill-opacity:1;stroke:none;stroke-width:0.26458332px;stroke-linecap:butt;stroke-linejoin:miter;stroke-opacity:1"
         id="text5482-2">
        <path
           d="m 104.5831,145.02368 h 0.3657 l 0.62339,1.77733 q 0.11937,0.33727 0.17432,0.60444 0.0474,-0.23875 0.17621,-0.61202 l 0.61961,-1.76975 h 0.36948 l -0.98909,2.7702 h -0.35053 z"
           style="font-size:3.88055563px;stroke-width:0.26458332px"
           id="path5670"
           inkscape:connector-curvature="0" />
      </g>
      <g
         aria-label="NP"
         style="font-style:normal;font-weight:normal;font-size:3.88055563px;line-height:6.61458349px;font-family:sans-serif;letter-spacing:0px;word-spacing:0px;fill:#000000;fill-opacity:1;stroke:none;stroke-width:0.26458332px;stroke-linecap:butt;stroke-linejoin:miter;stroke-opacity:1"
         id="text5482-2-0">
        <path
           d="m 126.6348,147.79388 h -0.40739 l -1.48363,-2.30029 h -0.0152 l 0.009,0.15348 q 0.0227,0.34486 0.0227,0.59876 v 1.54805 h -0.32212 v -2.7702 h 0.40359 l 0.0853,0.13453 0.9095,1.40595 0.48318,0.75223 h 0.0152 q -0.004,-0.0455 -0.0152,-0.32401 -0.0114,-0.28043 -0.0114,-0.40548 v -1.56322 h 0.32591 z"
           style="font-size:3.88055563px;stroke-width:0.26458332px"
           id="path5673"
           inkscape:connector-curvature="0" />
        <path
           d="m 129.16057,145.83845 q 0,0.42443 -0.28991,0.65181 -0.2899,0.22548 -0.81666,0.22548 h -0.31832 v 1.07814 h -0.34865 v -2.7702 h 0.73329 q 1.04025,0 1.04025,0.81477 z m -1.42489,0.57791 h 0.27853 q 0.41307,0 0.59876,-0.13263 0.18569,-0.13453 0.18569,-0.43012 0,-0.26717 -0.17243,-0.39981 -0.17242,-0.13263 -0.53812,-0.13263 h -0.35243 z"
           style="font-size:3.88055563px;stroke-width:0.26458332px"
           id="path5675"
           inkscape:connector-curvature="0" />
      </g>
    </g>
    <g
       id="g5642">
      <g
         aria-label="NP"
         style="font-style:normal;font-weight:normal;font-size:3.88055563px;line-height:6.61458349px;font-family:sans-serif;letter-spacing:0px;word-spacing:0px;fill:#000000;fill-opacity:1;stroke:none;stroke-width:0.26458332px;stroke-linecap:butt;stroke-linejoin:miter;stroke-opacity:1"
         id="text5482-26">
        <path
           d="m 84.502837,137.6893 h -0.407383 l -1.48363,-2.30029 h -0.01516 l 0.0095,0.15348 q 0.02274,0.34485 0.02274,0.59876 v 1.54805 h -0.322116 v -2.7702 h 0.403593 l 0.08527,0.13453 0.909505,1.40594 0.483175,0.75224 h 0.01516 q -0.0038,-0.0455 -0.01516,-0.32401 -0.01137,-0.28043 -0.01137,-0.40549 v -1.56321 h 0.325906 z"
           style="font-size:3.88055563px;stroke-width:0.26458332px"
           id="path5680"
           inkscape:connector-curvature="0" />
        <path
           d="m 87.028609,135.73386 q 0,0.42444 -0.289905,0.65182 -0.289905,0.22548 -0.81666,0.22548 h -0.318327 v 1.07814 h -0.348643 v -2.7702 h 0.733288 q 1.040247,0 1.040247,0.81476 z m -1.424892,0.57792 h 0.278536 q 0.413067,0 0.598758,-0.13264 0.18569,-0.13453 0.18569,-0.43012 0,-0.26716 -0.172427,-0.3998 -0.172427,-0.13264 -0.538123,-0.13264 h -0.352434 z"
           style="font-size:3.88055563px;stroke-width:0.26458332px"
           id="path5682"
           inkscape:connector-curvature="0" />
      </g>
      <g
         aria-label="VP"
         style="font-style:normal;font-weight:normal;font-size:3.88055563px;line-height:6.61458349px;font-family:sans-serif;letter-spacing:0px;word-spacing:0px;fill:#000000;fill-opacity:1;stroke:none;stroke-width:0.26458332px;stroke-linecap:butt;stroke-linejoin:miter;stroke-opacity:1"
         id="text5482-7">
        <path
           d="m 114.63313,134.9191 h 0.3657 l 0.62339,1.77732 q 0.11937,0.33728 0.17432,0.60445 0.0474,-0.23875 0.17622,-0.61203 l 0.6196,-1.76974 h 0.36949 l -0.98909,2.7702 h -0.35054 z"
           style="font-size:3.88055563px;stroke-width:0.26458332px"
           id="path5685"
           inkscape:connector-curvature="0" />
        <path
           d="m 119.11055,135.73386 q 0,0.42444 -0.2899,0.65182 -0.28991,0.22548 -0.81666,0.22548 h -0.31833 v 1.07814 h -0.34864 v -2.7702 h 0.73328 q 1.04025,0 1.04025,0.81476 z m -1.42489,0.57792 h 0.27854 q 0.41306,0 0.59875,-0.13264 0.18569,-0.13453 0.18569,-0.43012 0,-0.26716 -0.17242,-0.3998 -0.17243,-0.13264 -0.53813,-0.13264 h -0.35243 z"
           style="font-size:3.88055563px;stroke-width:0.26458332px"
           id="path5687"
           inkscape:connector-curvature="0" />
      </g>
    </g>
    <g
       aria-label="S"
       style="font-style:normal;font-weight:normal;font-size:3.88055563px;line-height:6.61458349px;font-family:sans-serif;letter-spacing:0px;word-spacing:0px;fill:#000000;fill-opacity:1;stroke:none;stroke-width:0.26458332px;stroke-linecap:butt;stroke-linejoin:miter;stroke-opacity:1"
       id="text5482-26-0">
      <path
         d="m 101.58406,125.99038 q 0,0.36191 -0.26149,0.57033 -0.26148,0.20843 -0.7276,0.20843 -0.49265,0 -0.761711,-0.13074 v -0.33348 q 0.176221,0.0758 0.384641,0.11937 0.21033,0.0436 0.39223,0.0436 0.31075,0 0.46801,-0.11937 0.15727,-0.11938 0.15727,-0.3278 0,-0.13832 -0.0568,-0.22738 -0.0568,-0.0891 -0.19138,-0.16674 -0.13263,-0.0777 -0.40359,-0.17622 -0.38464,-0.14021 -0.54949,-0.3297 -0.164849,-0.19137 -0.164849,-0.49264 0,-0.32402 0.242539,-0.51539 0.24442,-0.19138 0.64233,-0.19138 0.41497,0 0.76361,0.15538 l -0.108,0.29938 q -0.35623,-0.1478 -0.66319,-0.1478 -0.24632,0 -0.38654,0.10611 -0.13832,0.10611 -0.13832,0.29749 0,0.13642 0.0531,0.22737 0.055,0.0891 0.17432,0.16296 0.12127,0.0739 0.37896,0.16863 0.30885,0.11369 0.46044,0.22169 0.15158,0.10611 0.22358,0.24633 0.072,0.13832 0.072,0.33159 z"
         style="font-size:3.88055563px;stroke-width:0.26458332px"
         id="path5694"
         inkscape:connector-curvature="0" />
    </g>
    <path
       style="fill:none;fill-rule:evenodd;stroke:#000000;stroke-width:0.1;stroke-linecap:butt;stroke-linejoin:miter;stroke-opacity:1;stroke-miterlimit:4;stroke-dasharray:none"
       d="m 77.583643,144.75259 c 2.350036,-1.88226 4.699778,-3.76428 7.049233,-5.64607"
       id="path4575"
       inkscape:connector-curvature="0"
       inkscape:path-effect="#path-effect4577"
       inkscape:original-d="m 77.583643,144.75259 c 2.350009,-1.88229 4.699753,-3.76431 7.049233,-5.64607" />
    <path
       style="fill:none;fill-rule:evenodd;stroke:#000000;stroke-width:0.1;stroke-linecap:butt;stroke-linejoin:miter;stroke-opacity:1;stroke-miterlimit:4;stroke-dasharray:none"
       d="m 91.832449,144.95304 c -2.399825,-1.94881 -4.799683,-3.89765 -7.199573,-5.84652"
       id="path4579"
       inkscape:connector-curvature="0"
       inkscape:path-effect="#path-effect4581"
       inkscape:original-d="m 91.832449,144.95304 c -2.399593,-1.9491 -4.799451,-3.89794 -7.199573,-5.84652" />
    <path
       style="fill:none;fill-rule:evenodd;stroke:#000000;stroke-width:0.1;stroke-linecap:butt;stroke-linejoin:miter;stroke-opacity:1;stroke-miterlimit:4;stroke-dasharray:none"
       d="m 105.77897,144.74329 c 3.69794,-1.91332 7.39556,-3.82648 11.09286,-5.73947"
       id="path4599"
       inkscape:connector-curvature="0"
       inkscape:path-effect="#path-effect4601"
       inkscape:original-d="m 105.77897,144.74329 c 3.69789,-1.91342 7.39551,-3.82658 11.09286,-5.73947" />
    <path
       style="fill:none;fill-rule:evenodd;stroke:#000000;stroke-width:0.1;stroke-linecap:butt;stroke-linejoin:miter;stroke-opacity:1;stroke-miterlimit:4;stroke-dasharray:none"
       d="m 125.52823,144.90866 c -2.88541,-1.96824 -5.77088,-3.93652 -8.6564,-5.90484"
       id="path4603"
       inkscape:connector-curvature="0"
       inkscape:path-effect="#path-effect4605"
       inkscape:original-d="m 125.52823,144.90866 c -2.8852,-1.96855 -5.77067,-3.93683 -8.6564,-5.90484" />
    <path
       style="fill:none;fill-rule:evenodd;stroke:#000000;stroke-width:0.1;stroke-linecap:butt;stroke-linejoin:miter;stroke-opacity:1;stroke-miterlimit:4;stroke-dasharray:none"
       d="m 84.872167,134.46706 c 5.252611,-2.10262 10.504909,-4.20511 15.756883,-6.30747"
       id="path4619"
       inkscape:connector-curvature="0"
       inkscape:path-effect="#path-effect4621"
       inkscape:original-d="m 84.872167,134.46706 c 5.252558,-2.10275 10.504852,-4.20525 15.756883,-6.30747" />
    <path
       style="fill:none;fill-rule:evenodd;stroke:#000000;stroke-width:0.1;stroke-linecap:butt;stroke-linejoin:miter;stroke-opacity:1;stroke-miterlimit:4;stroke-dasharray:none"
       d="m 117.07101,134.44344 c -5.48051,-2.09456 -10.96116,-4.18918 -16.44196,-6.28385"
       id="path4623"
       inkscape:connector-curvature="0"
       inkscape:path-effect="#path-effect4625"
       inkscape:original-d="m 117.07101,134.44344 c -5.48039,-2.09488 -10.96104,-4.1895 -16.44196,-6.28385" />
    <path
       style="fill:none;fill-rule:evenodd;stroke:#000000;stroke-width:0.1;stroke-linecap:butt;stroke-linejoin:miter;stroke-opacity:1;stroke-miterlimit:4;stroke-dasharray:none"
       d="m 119.81134,155.18488 c 2.30751,-1.99249 4.61474,-3.98474 6.92169,-5.97674"
       id="path4631"
       inkscape:connector-curvature="0"
       inkscape:path-effect="#path-effect4633"
       inkscape:original-d="m 119.81134,155.18488 c 2.30749,-1.99251 4.61472,-3.98476 6.92169,-5.97674" />
    <path
       style="fill:none;fill-rule:evenodd;stroke:#000000;stroke-width:0.1;stroke-linecap:butt;stroke-linejoin:miter;stroke-opacity:1;stroke-miterlimit:4;stroke-dasharray:none"
       d="m 133.79646,155.18488 c -2.35445,-1.99223 -4.70893,-3.98447 -7.06343,-5.97674"
       id="path4635"
       inkscape:connector-curvature="0"
       inkscape:path-effect="#path-effect4637"
       inkscape:original-d="m 133.79646,155.18488 c -2.35421,-1.99251 -4.70869,-3.98476 -7.06343,-5.97674" />
  </g>
</svg>
