<?xml version="1.0" encoding="UTF-8" standalone="no"?>
<svg
   xmlns:dc="http://purl.org/dc/elements/1.1/"
   xmlns:cc="http://creativecommons.org/ns#"
   xmlns:rdf="http://www.w3.org/1999/02/22-rdf-syntax-ns#"
   xmlns:svg="http://www.w3.org/2000/svg"
   xmlns="http://www.w3.org/2000/svg"
   xmlns:sodipodi="http://sodipodi.sourceforge.net/DTD/sodipodi-0.dtd"
   xmlns:inkscape="http://www.inkscape.org/namespaces/inkscape"
   height="125.44495"
   width="825.94922"
   version="1.1"
   id="svg102"
   sodipodi:docname="nonproj.svg"
   inkscape:version="0.92.1 r">
  <metadata
     id="metadata108">
    <rdf:RDF>
      <cc:Work
         rdf:about="">
        <dc:format>image/svg+xml</dc:format>
        <dc:type
           rdf:resource="http://purl.org/dc/dcmitype/StillImage" />
        <dc:title></dc:title>
      </cc:Work>
    </rdf:RDF>
  </metadata>
  <defs
     id="defs106" />
  <sodipodi:namedview
     pagecolor="#ffffff"
     bordercolor="#666666"
     borderopacity="1"
     objecttolerance="10"
     gridtolerance="10"
     guidetolerance="10"
     inkscape:pageopacity="0"
     inkscape:pageshadow="2"
     inkscape:window-width="1364"
     inkscape:window-height="748"
     id="namedview104"
     showgrid="false"
     inkscape:zoom="1.5526882"
     inkscape:cx="265.98635"
     inkscape:cy="82.054786"
     inkscape:window-x="0"
     inkscape:window-y="18"
     inkscape:window-maximized="0"
     inkscape:current-layer="svg102" />
  <g
     aria-label="ROOT"
     style="text-anchor:middle"
     id="text2">
    <path
       d="m 1.078125,118.10901 h 1.2832031 q 1.0429688,0 1.5234375,-0.41016 0.4804688,-0.41015 0.4804688,-1.21875 0,-0.80859 -0.4863281,-1.17773 -0.4863282,-0.375 -1.5761719,-0.375 H 1.078125 Z m 0,0.91406 v 3.53906 H 0 v -8.5664 h 2.3613281 q 1.59375,0 2.3554688,0.60937 0.7675781,0.60352 0.7675781,1.82227 0,1.70508 -1.7167969,2.29687 l 2.3496094,3.83789 H 4.8574219 l -2.0742188,-3.53906 z"
       style="text-anchor:middle"
       id="path5021" />
    <path
       d="m 14.953125,118.26721 q 0,2.05664 -1.042969,3.23438 -1.037109,1.17773 -2.90625,1.17773 -1.8925779,0 -2.9296872,-1.1543 -1.0312501,-1.16015 -1.0312501,-3.26953 0,-2.09179 1.0253907,-3.24023 1.03125,-1.1543 2.9472656,-1.1543 1.863281,0 2.900391,1.17188 1.037109,1.16601 1.037109,3.23437 z m -6.7734375,0 q 0,1.69922 0.7207031,2.58985 0.7207032,0.89062 2.1035154,0.89062 1.376953,0 2.091797,-0.87891 0.714844,-0.8789 0.714844,-2.60156 0,-1.71679 -0.708984,-2.58398 -0.708985,-0.87305 -2.085938,-0.87305 -1.3945312,0 -2.1152344,0.88477 -0.7207031,0.8789 -0.7207031,2.57226 z"
       style="text-anchor:middle"
       id="path5023" />
    <path
       d="m 24.328125,118.26721 q 0,2.05664 -1.042969,3.23438 -1.037109,1.17773 -2.90625,1.17773 -1.892578,0 -2.929687,-1.1543 -1.03125,-1.16015 -1.03125,-3.26953 0,-2.09179 1.02539,-3.24023 1.03125,-1.1543 2.947266,-1.1543 1.863281,0 2.900391,1.17188 1.037109,1.16601 1.037109,3.23437 z m -6.773438,0 q 0,1.69922 0.720704,2.58985 0.720703,0.89062 2.103515,0.89062 1.376953,0 2.091797,-0.87891 0.714844,-0.8789 0.714844,-2.60156 0,-1.71679 -0.708985,-2.58398 -0.708984,-0.87305 -2.085937,-0.87305 -1.394531,0 -2.115234,0.88477 -0.720704,0.8789 -0.720704,2.57226 z"
       style="text-anchor:middle"
       id="path5025" />
    <path
       d="m 28.775391,122.56213 h -1.083985 v -7.61718 h -2.677734 v -0.94922 h 6.421875 v 0.94922 h -2.660156 z"
       style="text-anchor:middle"
       id="path5027" />
  </g>
  <g
     aria-label="A"
     style="text-anchor:middle"
     id="text4">
    <path
       d="m 107.91211,122.56213 -1.03125,-2.65429 h -3.39844 l -1.01953,2.65429 h -1.08984 l 3.3457,-8.60156 h 0.97266 l 3.33984,8.60156 z m -1.35352,-3.60937 -0.96093,-2.5957 -0.41016,-1.28321 q -0.17578,0.70313 -0.36914,1.28321 l -0.97266,2.5957 z"
       style="text-anchor:middle"
       id="path5030" />
  </g>
  <g
     aria-label="hearing"
     style="text-anchor:middle"
     id="text6">
    <path
       d="m 178.70508,122.56213 v -4.11328 q 0,-0.78515 -0.35156,-1.16601 -0.34571,-0.38672 -1.08985,-0.38672 -0.97851,0 -1.43555,0.54492 -0.45117,0.54492 -0.45117,1.79883 v 3.32226 h -1.05468 v -9.11718 h 1.05468 v 2.67187 q 0,0.52735 -0.0586,0.90235 h 0.0703 q 0.28711,-0.46875 0.81445,-0.73243 0.52735,-0.26367 1.18946,-0.26367 1.17187,0 1.76367,0.5625 0.5918,0.55664 0.5918,1.78711 v 4.18945 z"
       style="text-anchor:middle"
       id="path5033" />
    <path
       d="m 184.48828,122.67932 q -1.44726,0 -2.27344,-0.87305 -0.82031,-0.8789 -0.82031,-2.41406 0,-1.54687 0.76758,-2.46094 0.76758,-0.91992 2.07422,-0.91992 1.21289,0 1.93359,0.78516 0.7207,0.7793 0.7207,2.11523 v 0.63868 h -4.40625 q 0.0293,1.0957 0.55665,1.66406 0.52734,0.56836 1.49414,0.56836 0.51562,0 0.97851,-0.0879 0.46289,-0.0937 1.08399,-0.35743 v 0.92579 q -0.53321,0.22851 -1.00196,0.32226 -0.46875,0.0937 -1.10742,0.0937 z m -0.26367,-5.80664 q -0.75586,0 -1.19531,0.48633 -0.43946,0.48633 -0.52149,1.35351 h 3.27539 q -0.0117,-0.90234 -0.41601,-1.37109 -0.4043,-0.46875 -1.14258,-0.46875 z"
       style="text-anchor:middle"
       id="path5035" />
    <path
       d="m 192.49805,122.56213 -0.20508,-0.91406 h -0.0469 q -0.48047,0.60352 -0.96093,0.82031 -0.47461,0.21094 -1.20118,0.21094 -0.94921,0 -1.48828,-0.49805 -0.53906,-0.49804 -0.53906,-1.40625 0,-1.95703 3.08789,-2.05078 l 1.08984,-0.041 v -0.38086 q 0,-0.73242 -0.3164,-1.07813 -0.31641,-0.35156 -1.01367,-0.35156 -0.50977,0 -0.9668,0.15234 -0.45117,0.15235 -0.84961,0.33985 l -0.32227,-0.79102 q 0.48633,-0.25781 1.06055,-0.40429 0.57422,-0.14649 1.13672,-0.14649 1.16602,0 1.73438,0.51563 0.56835,0.51562 0.56835,1.64062 v 4.38281 z m -2.17383,-0.73242 q 0.88476,0 1.38867,-0.47461 0.50977,-0.48047 0.50977,-1.35937 v -0.58008 l -0.94922,0.041 q -1.10742,0.041 -1.61719,0.35156 -0.50391,0.31054 -0.50391,0.97851 0,0.50391 0.30469,0.77344 0.31055,0.26953 0.86719,0.26953 z"
       style="text-anchor:middle"
       id="path5037" />
    <path
       d="m 198.25195,116.01135 q 0.42774,0 0.75586,0.0703 l -0.1289,0.97265 q -0.35743,-0.082 -0.69727,-0.082 -0.50977,0 -0.94922,0.28125 -0.43359,0.28125 -0.67969,0.7793 -0.24609,0.49218 -0.24609,1.0957 v 3.43359 h -1.05469 v -6.43359 h 0.86719 l 0.11719,1.17773 h 0.0469 q 0.36914,-0.63867 0.87305,-0.96679 0.50391,-0.32813 1.0957,-0.32813 z"
       style="text-anchor:middle"
       id="path5039" />
    <path
       d="m 201.27539,122.56213 h -1.05469 v -6.43359 h 1.05469 z m -1.13672,-8.17382 q 0,-0.35157 0.17578,-0.50977 0.18164,-0.1582 0.44532,-0.1582 0.24609,0 0.42773,0.1582 0.1875,0.1582 0.1875,0.50977 0,0.3457 -0.1875,0.50976 -0.18164,0.16406 -0.42773,0.16406 -0.26368,0 -0.44532,-0.16406 -0.17578,-0.16406 -0.17578,-0.50976 z"
       style="text-anchor:middle"
       id="path5041" />
    <path
       d="m 207.69727,122.56213 v -4.11328 q 0,-0.78515 -0.35157,-1.16601 -0.3457,-0.38672 -1.08984,-0.38672 -0.99024,0 -1.44141,0.55078 -0.44531,0.54492 -0.44531,1.78125 v 3.33398 h -1.05469 v -6.43359 h 0.84961 l 0.15821,0.87891 h 0.0586 q 0.29883,-0.47461 0.83789,-0.73243 0.53906,-0.26367 1.18945,-0.26367 1.1836,0 1.75782,0.57422 0.57421,0.57422 0.57421,1.78711 v 4.18945 z"
       style="text-anchor:middle"
       id="path5043" />
    <path
       d="m 213.19336,121.81799 q 0.97266,0 1.41211,-0.52148 0.44531,-0.52734 0.44531,-1.6875 v -0.25195 q 0,-1.28907 -0.44531,-1.875 -0.44531,-0.58594 -1.43555,-0.58594 -0.80859,0 -1.2539,0.64453 -0.43946,0.63867 -0.43946,1.82812 0,1.19532 0.42774,1.82227 0.43359,0.62695 1.28906,0.62695 z m 1.8457,0.68555 0.0352,-0.79102 h -0.0469 q -0.65039,0.9668 -1.99218,0.9668 -1.24805,0 -1.95118,-0.86719 -0.69726,-0.87304 -0.69726,-2.45507 0,-1.55274 0.70312,-2.44922 0.70899,-0.89649 1.9336,-0.89649 1.30664,0 2.01562,0.97266 h 0.0645 l 0.14062,-0.85547 h 0.83789 v 6.53906 q 0,1.38282 -0.70312,2.08008 -0.69727,0.69727 -2.17383,0.69727 -1.40625,0 -2.31446,-0.41016 v -0.97266 q 0.9375,0.50391 2.37305,0.50391 0.82031,0 1.29492,-0.48047 0.48047,-0.48047 0.48047,-1.33008 z"
       style="text-anchor:middle"
       id="path5045" />
  </g>
  <g
     aria-label="is"
     style="text-anchor:middle"
     id="text8">
    <path
       d="m 282.86133,122.56213 h -1.05469 v -6.43359 h 1.05469 z m -1.13672,-8.17382 q 0,-0.35157 0.17578,-0.50977 0.18164,-0.1582 0.44531,-0.1582 0.2461,0 0.42774,0.1582 0.1875,0.1582 0.1875,0.50977 0,0.3457 -0.1875,0.50976 -0.18164,0.16406 -0.42774,0.16406 -0.26367,0 -0.44531,-0.16406 -0.17578,-0.16406 -0.17578,-0.50976 z"
       style="text-anchor:middle"
       id="path5048" />
    <path
       d="m 289.08984,120.78674 q 0,0.90235 -0.67382,1.40039 -0.67383,0.49219 -1.89258,0.49219 -1.27149,0 -2.02149,-0.4043 v -0.96093 q 1.06055,0.51562 2.04492,0.51562 0.79688,0 1.16016,-0.25781 0.36328,-0.25781 0.36328,-0.69141 0,-0.38086 -0.35156,-0.64453 -0.3457,-0.26367 -1.23633,-0.60351 -0.9082,-0.35157 -1.27734,-0.59766 -0.36914,-0.25195 -0.54492,-0.5625 -0.16993,-0.31055 -0.16993,-0.75586 0,-0.79101 0.64454,-1.24805 0.64453,-0.45703 1.76953,-0.45703 1.0957,0 2.05078,0.4336 l -0.35742,0.83789 q -0.97852,-0.41016 -1.76368,-0.41016 -0.65625,0 -0.99609,0.21094 -0.33984,0.20508 -0.33984,0.56836 0,0.35156 0.29297,0.58594 0.29296,0.22851 1.36523,0.63867 0.80273,0.29883 1.18359,0.55664 0.38672,0.25781 0.56836,0.58008 0.18164,0.32226 0.18164,0.77343 z"
       style="text-anchor:middle"
       id="path5050" />
  </g>
  <g
     aria-label="scheduled"
     style="text-anchor:middle"
     id="text10">
    <path
       d="m 351.52734,120.78674 q 0,0.90235 -0.67382,1.40039 -0.67383,0.49219 -1.89258,0.49219 -1.27149,0 -2.02149,-0.4043 v -0.96093 q 1.06055,0.51562 2.04492,0.51562 0.79688,0 1.16016,-0.25781 0.36328,-0.25781 0.36328,-0.69141 0,-0.38086 -0.35156,-0.64453 -0.3457,-0.26367 -1.23633,-0.60351 -0.9082,-0.35157 -1.27734,-0.59766 -0.36914,-0.25195 -0.54492,-0.5625 -0.16993,-0.31055 -0.16993,-0.75586 0,-0.79101 0.64454,-1.24805 0.64453,-0.45703 1.76953,-0.45703 1.0957,0 2.05078,0.4336 l -0.35742,0.83789 q -0.97852,-0.41016 -1.76368,-0.41016 -0.65625,0 -0.99609,0.21094 -0.33984,0.20508 -0.33984,0.56836 0,0.35156 0.29297,0.58594 0.29296,0.22851 1.36523,0.63867 0.80273,0.29883 1.18359,0.55664 0.38672,0.25781 0.56836,0.58008 0.18164,0.32226 0.18164,0.77343 z"
       style="text-anchor:middle"
       id="path5053" />
    <path
       d="m 355.6582,122.67932 q -1.38867,0 -2.16211,-0.84961 -0.77343,-0.85547 -0.77343,-2.44922 0,-1.61718 0.77929,-2.49023 0.78516,-0.87891 2.23242,-0.87891 0.46875,0 0.92579,0.0996 0.46289,0.0937 0.76171,0.2461 l -0.32226,0.8789 q -0.81445,-0.30469 -1.38867,-0.30469 -0.97266,0 -1.43555,0.61524 -0.46289,0.60937 -0.46289,1.82226 0,1.16602 0.46289,1.78711 0.46289,0.61524 1.37109,0.61524 0.84961,0 1.66993,-0.375 v 0.9375 q -0.66797,0.3457 -1.65821,0.3457 z"
       style="text-anchor:middle"
       id="path5055" />
    <path
       d="m 363.22852,122.56213 v -4.11328 q 0,-0.78515 -0.35157,-1.16601 -0.3457,-0.38672 -1.08984,-0.38672 -0.97852,0 -1.43555,0.54492 -0.45117,0.54492 -0.45117,1.79883 v 3.32226 h -1.05469 v -9.11718 h 1.05469 v 2.67187 q 0,0.52735 -0.0586,0.90235 h 0.0703 q 0.28711,-0.46875 0.81445,-0.73243 0.52735,-0.26367 1.18946,-0.26367 1.17187,0 1.76367,0.5625 0.59179,0.55664 0.59179,1.78711 v 4.18945 z"
       style="text-anchor:middle"
       id="path5057" />
    <path
       d="m 369.01172,122.67932 q -1.44727,0 -2.27344,-0.87305 -0.82031,-0.8789 -0.82031,-2.41406 0,-1.54687 0.76758,-2.46094 0.76757,-0.91992 2.07422,-0.91992 1.21289,0 1.93359,0.78516 0.7207,0.7793 0.7207,2.11523 v 0.63868 h -4.40625 q 0.0293,1.0957 0.55664,1.66406 0.52735,0.56836 1.49414,0.56836 0.51563,0 0.97852,-0.0879 0.46289,-0.0937 1.08398,-0.35743 v 0.92579 q -0.5332,0.22851 -1.00195,0.32226 -0.46875,0.0937 -1.10742,0.0937 z m -0.26367,-5.80664 q -0.75586,0 -1.19532,0.48633 -0.43945,0.48633 -0.52148,1.35351 h 3.27539 q -0.0117,-0.90234 -0.41602,-1.37109 -0.40429,-0.46875 -1.14257,-0.46875 z"
       style="text-anchor:middle"
       id="path5059" />
    <path
       d="m 375.32812,122.67932 q -1.2539,0 -1.94531,-0.86719 -0.6914,-0.86718 -0.6914,-2.45507 0,-1.57618 0.6914,-2.46094 0.69727,-0.88477 1.95703,-0.88477 1.29493,0 1.99219,0.94922 h 0.0762 q -0.0176,-0.11719 -0.0469,-0.46875 -0.0293,-0.35742 -0.0293,-0.48047 v -2.5664 h 1.05469 v 9.11718 h -0.84961 l -0.1582,-0.86132 h -0.0469 q -0.67383,0.97851 -2.00391,0.97851 z m 0.16993,-0.87305 q 0.96093,0 1.40039,-0.52148 0.44531,-0.52734 0.44531,-1.72266 v -0.19336 q 0,-1.34179 -0.45117,-1.91015 -0.44531,-0.57422 -1.40625,-0.57422 -0.81446,0 -1.25977,0.65039 -0.44531,0.64453 -0.44531,1.8457 0,1.19532 0.43945,1.81055 0.44532,0.61523 1.27735,0.61523 z"
       style="text-anchor:middle"
       id="path5061" />
    <path
       d="m 381.42773,116.12854 v 4.14258 q 0,0.7793 0.34571,1.16015 0.35156,0.375 1.08398,0.375 0.99024,0 1.44141,-0.55078 0.45117,-0.55078 0.45117,-1.77539 v -3.35156 h 1.06055 v 6.43359 h -0.86719 l -0.15234,-0.84961 h -0.0527 q -0.28711,0.4629 -0.81445,0.71485 -0.52735,0.25195 -1.22461,0.25195 -1.16016,0 -1.75195,-0.55664 -0.58594,-0.55664 -0.58594,-1.78125 v -4.21289 z"
       style="text-anchor:middle"
       id="path5063" />
    <path
       d="m 388.91602,122.56213 h -1.05469 v -9.11718 h 1.05469 z"
       style="text-anchor:middle"
       id="path5065" />
    <path
       d="m 393.69141,122.67932 q -1.44727,0 -2.27344,-0.87305 -0.82031,-0.8789 -0.82031,-2.41406 0,-1.54687 0.76757,-2.46094 0.76758,-0.91992 2.07422,-0.91992 1.21289,0 1.9336,0.78516 0.7207,0.7793 0.7207,2.11523 v 0.63868 h -4.40625 q 0.0293,1.0957 0.55664,1.66406 0.52734,0.56836 1.49414,0.56836 0.51563,0 0.97852,-0.0879 0.46289,-0.0937 1.08398,-0.35743 v 0.92579 q -0.5332,0.22851 -1.00195,0.32226 -0.46875,0.0937 -1.10742,0.0937 z m -0.26368,-5.80664 q -0.75586,0 -1.19531,0.48633 -0.43945,0.48633 -0.52148,1.35351 h 3.27539 q -0.0117,-0.90234 -0.41602,-1.37109 -0.40429,-0.46875 -1.14258,-0.46875 z"
       style="text-anchor:middle"
       id="path5067" />
    <path
       d="m 400.00781,122.67932 q -1.2539,0 -1.94531,-0.86719 -0.69141,-0.86718 -0.69141,-2.45507 0,-1.57618 0.69141,-2.46094 0.69727,-0.88477 1.95703,-0.88477 1.29492,0 1.99219,0.94922 h 0.0762 q -0.0176,-0.11719 -0.0469,-0.46875 -0.0293,-0.35742 -0.0293,-0.48047 v -2.5664 h 1.05469 v 9.11718 h -0.84961 l -0.15821,-0.86132 h -0.0469 q -0.67383,0.97851 -2.00391,0.97851 z m 0.16992,-0.87305 q 0.96094,0 1.40039,-0.52148 0.44532,-0.52734 0.44532,-1.72266 v -0.19336 q 0,-1.34179 -0.45117,-1.91015 -0.44532,-0.57422 -1.40625,-0.57422 -0.81446,0 -1.25977,0.65039 -0.44531,0.64453 -0.44531,1.8457 0,1.19532 0.43945,1.81055 0.44531,0.61523 1.27734,0.61523 z"
       style="text-anchor:middle"
       id="path5069" />
  </g>
  <g
     aria-label="on"
     style="text-anchor:middle"
     id="text12">
    <path
       d="m 464.4668,119.33362 q 0,1.57617 -0.79688,2.46094 -0.79687,0.88476 -2.20312,0.88476 -0.87305,0 -1.54688,-0.4043 -0.67383,-0.41015 -1.03711,-1.17187 -0.36328,-0.76172 -0.36328,-1.76953 0,-1.57031 0.78516,-2.44336 0.78515,-0.87891 2.20312,-0.87891 1.35938,0 2.15625,0.89649 0.80274,0.89062 0.80274,2.42578 z m -4.85743,0 q 0,1.21289 0.47461,1.8457 0.48047,0.62695 1.41211,0.62695 0.91993,0 1.40039,-0.62695 0.48047,-0.63281 0.48047,-1.8457 0,-1.21289 -0.48633,-1.82227 -0.48046,-0.61523 -1.4121,-0.61523 -1.86915,0 -1.86915,2.4375 z"
       style="text-anchor:middle"
       id="path5072" />
    <path
       d="m 470.52539,122.56213 v -4.11328 q 0,-0.78515 -0.35156,-1.16601 -0.34571,-0.38672 -1.08985,-0.38672 -0.99023,0 -1.4414,0.55078 -0.44531,0.54492 -0.44531,1.78125 v 3.33398 h -1.05469 v -6.43359 h 0.84961 l 0.1582,0.87891 h 0.0586 q 0.29883,-0.47461 0.83789,-0.73243 0.53907,-0.26367 1.18946,-0.26367 1.18359,0 1.75781,0.57422 0.57422,0.57422 0.57422,1.78711 v 4.18945 z"
       style="text-anchor:middle"
       id="path5074" />
  </g>
  <g
     aria-label="the"
     style="text-anchor:middle"
     id="text14">
    <path
       d="m 549.10547,121.81799 q 0.20508,0 0.48047,-0.041 0.27539,-0.041 0.41601,-0.0937 v 0.80859 q -0.14648,0.0644 -0.45703,0.12305 -0.30469,0.0645 -0.62109,0.0645 -1.88672,0 -1.88672,-1.98633 v -3.74414 h -0.9082 v -0.5039 l 0.91992,-0.42188 0.42187,-1.37109 h 0.62696 v 1.47656 h 1.85742 v 0.82031 h -1.85742 v 3.71485 q 0,0.55664 0.26367,0.85547 0.26953,0.29882 0.74414,0.29882 z"
       style="text-anchor:middle"
       id="path5077" />
    <path
       d="m 555.67383,122.56213 v -4.11328 q 0,-0.78515 -0.35156,-1.16601 -0.34571,-0.38672 -1.08985,-0.38672 -0.97851,0 -1.43555,0.54492 -0.45117,0.54492 -0.45117,1.79883 v 3.32226 h -1.05468 v -9.11718 h 1.05468 v 2.67187 q 0,0.52735 -0.0586,0.90235 h 0.0703 q 0.28711,-0.46875 0.81445,-0.73243 0.52735,-0.26367 1.18946,-0.26367 1.17187,0 1.76367,0.5625 0.5918,0.55664 0.5918,1.78711 v 4.18945 z"
       style="text-anchor:middle"
       id="path5079" />
    <path
       d="m 561.45703,122.67932 q -1.44726,0 -2.27344,-0.87305 -0.82031,-0.8789 -0.82031,-2.41406 0,-1.54687 0.76758,-2.46094 0.76758,-0.91992 2.07422,-0.91992 1.21289,0 1.93359,0.78516 0.7207,0.7793 0.7207,2.11523 v 0.63868 h -4.40625 q 0.0293,1.0957 0.55665,1.66406 0.52734,0.56836 1.49414,0.56836 0.51562,0 0.97851,-0.0879 0.46289,-0.0937 1.08399,-0.35743 v 0.92579 q -0.53321,0.22851 -1.00196,0.32226 -0.46875,0.0937 -1.10742,0.0937 z m -0.26367,-5.80664 q -0.75586,0 -1.19531,0.48633 -0.43946,0.48633 -0.52149,1.35351 h 3.27539 q -0.0117,-0.90234 -0.41601,-1.37109 -0.4043,-0.46875 -1.14258,-0.46875 z"
       style="text-anchor:middle"
       id="path5081" />
  </g>
  <g
     aria-label="issue"
     style="text-anchor:middle"
     id="text16">
    <path
       d="m 632.88867,122.56213 h -1.05469 v -6.43359 h 1.05469 z m -1.13672,-8.17382 q 0,-0.35157 0.17578,-0.50977 0.18164,-0.1582 0.44532,-0.1582 0.24609,0 0.42773,0.1582 0.1875,0.1582 0.1875,0.50977 0,0.3457 -0.1875,0.50976 -0.18164,0.16406 -0.42773,0.16406 -0.26368,0 -0.44532,-0.16406 -0.17578,-0.16406 -0.17578,-0.50976 z"
       style="text-anchor:middle"
       id="path5084" />
    <path
       d="m 639.11719,120.78674 q 0,0.90235 -0.67383,1.40039 -0.67383,0.49219 -1.89258,0.49219 -1.27148,0 -2.02148,-0.4043 v -0.96093 q 1.06054,0.51562 2.04492,0.51562 0.79687,0 1.16015,-0.25781 0.36329,-0.25781 0.36329,-0.69141 0,-0.38086 -0.35157,-0.64453 -0.3457,-0.26367 -1.23632,-0.60351 -0.90821,-0.35157 -1.27735,-0.59766 -0.36914,-0.25195 -0.54492,-0.5625 -0.16992,-0.31055 -0.16992,-0.75586 0,-0.79101 0.64453,-1.24805 0.64453,-0.45703 1.76953,-0.45703 1.0957,0 2.05078,0.4336 l -0.35742,0.83789 q -0.97852,-0.41016 -1.76367,-0.41016 -0.65625,0 -0.9961,0.21094 -0.33984,0.20508 -0.33984,0.56836 0,0.35156 0.29297,0.58594 0.29297,0.22851 1.36523,0.63867 0.80274,0.29883 1.1836,0.55664 0.38672,0.25781 0.56836,0.58008 0.18164,0.32226 0.18164,0.77343 z"
       style="text-anchor:middle"
       id="path5086" />
    <path
       d="m 644.85937,120.78674 q 0,0.90235 -0.67382,1.40039 -0.67383,0.49219 -1.89258,0.49219 -1.27149,0 -2.02149,-0.4043 v -0.96093 q 1.06055,0.51562 2.04493,0.51562 0.79687,0 1.16015,-0.25781 0.36328,-0.25781 0.36328,-0.69141 0,-0.38086 -0.35156,-0.64453 -0.3457,-0.26367 -1.23633,-0.60351 -0.9082,-0.35157 -1.27734,-0.59766 -0.36914,-0.25195 -0.54492,-0.5625 -0.16992,-0.31055 -0.16992,-0.75586 0,-0.79101 0.64453,-1.24805 0.64453,-0.45703 1.76953,-0.45703 1.0957,0 2.05078,0.4336 l -0.35742,0.83789 q -0.97852,-0.41016 -1.76367,-0.41016 -0.65625,0 -0.9961,0.21094 -0.33984,0.20508 -0.33984,0.56836 0,0.35156 0.29297,0.58594 0.29297,0.22851 1.36523,0.63867 0.80274,0.29883 1.18359,0.55664 0.38672,0.25781 0.56836,0.58008 0.18164,0.32226 0.18164,0.77343 z"
       style="text-anchor:middle"
       id="path5088" />
    <path
       d="m 647.4082,116.12854 v 4.14258 q 0,0.7793 0.34571,1.16015 0.35156,0.375 1.08398,0.375 0.99023,0 1.44141,-0.55078 0.45117,-0.55078 0.45117,-1.77539 v -3.35156 h 1.06055 v 6.43359 h -0.86719 l -0.15235,-0.84961 h -0.0527 q -0.28711,0.4629 -0.81445,0.71485 -0.52735,0.25195 -1.22461,0.25195 -1.16016,0 -1.75196,-0.55664 -0.58593,-0.55664 -0.58593,-1.78125 v -4.21289 z"
       style="text-anchor:middle"
       id="path5090" />
    <path
       d="m 656.57812,122.67932 q -1.44726,0 -2.27343,-0.87305 -0.82032,-0.8789 -0.82032,-2.41406 0,-1.54687 0.76758,-2.46094 0.76758,-0.91992 2.07422,-0.91992 1.21289,0 1.9336,0.78516 0.7207,0.7793 0.7207,2.11523 v 0.63868 h -4.40625 q 0.0293,1.0957 0.55664,1.66406 0.52734,0.56836 1.49414,0.56836 0.51562,0 0.97852,-0.0879 0.46289,-0.0937 1.08398,-0.35743 v 0.92579 q -0.5332,0.22851 -1.00195,0.32226 -0.46875,0.0937 -1.10743,0.0937 z m -0.26367,-5.80664 q -0.75586,0 -1.19531,0.48633 -0.43945,0.48633 -0.52148,1.35351 h 3.27539 q -0.0117,-0.90234 -0.41602,-1.37109 -0.4043,-0.46875 -1.14258,-0.46875 z"
       style="text-anchor:middle"
       id="path5092" />
  </g>
  <g
     aria-label="today"
     style="text-anchor:middle"
     id="text18">
    <path
       d="m 722.46094,121.81799 q 0.20508,0 0.48047,-0.041 0.27539,-0.041 0.41601,-0.0937 v 0.80859 q -0.14648,0.0644 -0.45703,0.12305 -0.30469,0.0645 -0.62109,0.0645 -1.88672,0 -1.88672,-1.98633 v -3.74414 h -0.90821 v -0.5039 l 0.91993,-0.42188 0.42187,-1.37109 h 0.62695 v 1.47656 h 1.85743 v 0.82031 h -1.85743 v 3.71485 q 0,0.55664 0.26368,0.85547 0.26953,0.29882 0.74414,0.29882 z"
       style="text-anchor:middle"
       id="path5095" />
    <path
       d="m 730.23633,119.33362 q 0,1.57617 -0.79688,2.46094 -0.79687,0.88476 -2.20312,0.88476 -0.87305,0 -1.54688,-0.4043 -0.67383,-0.41015 -1.03711,-1.17187 -0.36328,-0.76172 -0.36328,-1.76953 0,-1.57031 0.78516,-2.44336 0.78515,-0.87891 2.20312,-0.87891 1.35938,0 2.15625,0.89649 0.80274,0.89062 0.80274,2.42578 z m -4.85742,0 q 0,1.21289 0.47461,1.8457 0.48046,0.62695 1.4121,0.62695 0.91993,0 1.4004,-0.62695 0.48046,-0.63281 0.48046,-1.8457 0,-1.21289 -0.48632,-1.82227 -0.48047,-0.61523 -1.41211,-0.61523 -1.86914,0 -1.86914,2.4375 z"
       style="text-anchor:middle"
       id="path5097" />
    <path
       d="m 734.19141,122.67932 q -1.25391,0 -1.94532,-0.86719 -0.6914,-0.86718 -0.6914,-2.45507 0,-1.57618 0.6914,-2.46094 0.69727,-0.88477 1.95703,-0.88477 1.29493,0 1.99219,0.94922 h 0.0762 q -0.0176,-0.11719 -0.0469,-0.46875 -0.0293,-0.35742 -0.0293,-0.48047 v -2.5664 H 737.25 v 9.11718 h -0.84961 l -0.1582,-0.86132 h -0.0469 q -0.67383,0.97851 -2.0039,0.97851 z m 0.16992,-0.87305 q 0.96094,0 1.40039,-0.52148 0.44531,-0.52734 0.44531,-1.72266 v -0.19336 q 0,-1.34179 -0.45117,-1.91015 -0.44531,-0.57422 -1.40625,-0.57422 -0.81445,0 -1.25977,0.65039 -0.44531,0.64453 -0.44531,1.8457 0,1.19532 0.43945,1.81055 0.44532,0.61523 1.27735,0.61523 z"
       style="text-anchor:middle"
       id="path5099" />
    <path
       d="m 743.26758,122.56213 -0.20508,-0.91406 h -0.0469 q -0.48046,0.60352 -0.96093,0.82031 -0.47461,0.21094 -1.20117,0.21094 -0.94922,0 -1.48829,-0.49805 -0.53906,-0.49804 -0.53906,-1.40625 0,-1.95703 3.08789,-2.05078 l 1.08985,-0.041 v -0.38086 q 0,-0.73242 -0.31641,-1.07813 -0.31641,-0.35156 -1.01367,-0.35156 -0.50977,0 -0.9668,0.15234 -0.45117,0.15235 -0.84961,0.33985 l -0.32226,-0.79102 q 0.48632,-0.25781 1.06054,-0.40429 0.57422,-0.14649 1.13672,-0.14649 1.16602,0 1.73438,0.51563 0.56836,0.51562 0.56836,1.64062 v 4.38281 z m -2.17383,-0.73242 q 0.88477,0 1.38867,-0.47461 0.50977,-0.48047 0.50977,-1.35937 v -0.58008 l -0.94922,0.041 q -1.10742,0.041 -1.61719,0.35156 -0.50391,0.31054 -0.50391,0.97851 0,0.50391 0.30469,0.77344 0.31055,0.26953 0.86719,0.26953 z"
       style="text-anchor:middle"
       id="path5101" />
    <path
       d="m 745.01367,116.12854 h 1.13086 l 1.38867,3.66211 q 0.43946,1.19531 0.53907,1.75195 h 0.0469 q 0.0527,-0.21679 0.24023,-0.80859 0.1875,-0.59766 0.31641,-0.95508 l 1.30664,-3.65039 h 1.13672 l -2.77148,7.32422 q -0.4043,1.06641 -0.96094,1.5293 -0.55664,0.46289 -1.37695,0.46289 -0.43946,0 -0.87305,-0.0996 v -0.83789 q 0.29297,0.0703 0.70312,0.0703 0.50391,0 0.85547,-0.28125 0.35156,-0.27539 0.57422,-0.85547 l 0.33399,-0.85547 z"
       style="text-anchor:middle"
       id="path5103" />
  </g>
  <g
     aria-label="."
     style="text-anchor:middle"
     id="text20">
    <path
       d="m 824.46094,121.91174 q 0,-0.38672 0.1875,-0.59179 0.19336,-0.21094 0.54492,-0.21094 0.35742,0 0.55664,0.21094 0.19922,0.20507 0.19922,0.59179 0,0.38086 -0.19922,0.60352 -0.19922,0.2168 -0.55664,0.2168 -0.3457,0 -0.53906,-0.2168 -0.19336,-0.2168 -0.19336,-0.60352 z"
       style="text-anchor:middle"
       id="path5106" />
  </g>
  <path
     id="path42"
     d=""
     inkscape:connector-curvature="0" />
  <path
     class="edge w1 w2"
     d="m 105.20508,106.56214 c 22.5,-12.000001 67.5,-12.000001 90,0"
     id="path44"
     style="fill:none;stroke:#a4a4a4;stroke-width:1.5;stroke-opacity:1"
     inkscape:connector-curvature="0" />
  <path
     class="edge w2 w3"
     d="m 195.20508,106.56214 c 22.5,-12.000001 67.5,-12.000001 90,0"
     id="path46"
     style="fill:none;stroke:#a4a4a4;stroke-width:1.5;stroke-opacity:1"
     inkscape:connector-curvature="0" />
  <path
     class="edge w3 w0"
     d="m 285.20508,106.56214 c -67.5,-36.822028 -202.500002,-36.822028 -270.000002,0"
     id="path48"
     style="fill:none;stroke:#a4a4a4;stroke-width:1.5;stroke-opacity:1"
     inkscape:connector-curvature="0" />
  <path
     class="edge w4 w3"
     d="m 375.20508,106.56214 c -22.5,-12.000001 -67.5,-12.000001 -90,0"
     id="path50"
     style="fill:none;stroke:#a4a4a4;stroke-width:1.5;stroke-opacity:1"
     inkscape:connector-curvature="0" />
  <path
     class="edge w5 w2"
     d="m 465.20508,106.56214 c -67.5,-36.822028 -202.5,-36.822028 -270,0"
     id="path52"
     style="fill:none;stroke:#a4a4a4;stroke-width:1.5;stroke-opacity:1"
     inkscape:connector-curvature="0" />
  <path
     class="edge w6 w7"
     d="m 555.20508,106.56214 c 22.5,-12.000001 67.5,-12.000001 90,0"
     id="path54"
     style="fill:none;stroke:#a4a4a4;stroke-width:1.5;stroke-opacity:1"
     inkscape:connector-curvature="0" />
  <path
     class="edge w7 w5"
     d="m 645.20508,106.56214 c -45,-36.822028 -135,-36.822028 -180,0"
     id="path56"
     style="fill:none;stroke:#a4a4a4;stroke-width:1.5;stroke-opacity:1"
     inkscape:connector-curvature="0" />
  <path
     class="edge w8 w4"
     d="m 735.20508,106.56214 c -90,-74.246746 -270,-74.246746 -360,0"
     id="path58"
     style="fill:none;stroke:#a4a4a4;stroke-width:1.5;stroke-opacity:1"
     inkscape:connector-curvature="0" />
  <path
     class="edge w9 w3"
     d="m 825.20508,106.56214 c -135,-123.257331 -405,-123.257331 -540,0"
     id="path60"
     style="fill:none;stroke:#a4a4a4;stroke-width:1.5;stroke-opacity:1"
     inkscape:connector-curvature="0" />
  <g
     style=""
     id="text62" />
  <g
     aria-label="nmod"
     style="font-size:89.99999762%;text-anchor:middle"
     id="text64">
    <path
       d="m 140.08008,90.562126 v -3.701953 q 0,-0.70664 -0.31641,-1.049414 -0.31113,-0.348047 -0.98086,-0.348047 -0.89121,0 -1.29726,0.495704 -0.40078,0.490429 -0.40078,1.603124 v 3.000586 h -0.94922 v -5.790234 h 0.76465 l 0.14238,0.791016 h 0.0527 q 0.26895,-0.427149 0.7541,-0.65918 0.48516,-0.237305 1.07051,-0.237305 1.06524,0 1.58203,0.516797 0.5168,0.516797 0.5168,1.608399 v 3.770507 z"
       style="font-size:89.99999762%;text-anchor:middle"
       id="path5110" />
    <path
       d="m 150.18926,90.562126 v -3.72832 q 0,-1.371094 -1.17598,-1.371094 -0.80683,0 -1.18652,0.469336 -0.37969,0.469336 -0.37969,1.434375 v 3.195703 h -0.94394 v -3.72832 q 0,-0.685547 -0.29004,-1.02832 -0.28477,-0.342774 -0.89649,-0.342774 -0.80156,0 -1.17597,0.49043 -0.36914,0.49043 -0.36914,1.608398 v 3.000586 h -0.94922 v -5.790234 h 0.76464 l 0.14239,0.791016 h 0.0527 q 0.24785,-0.421875 0.6961,-0.65918 0.45351,-0.237305 1.0125,-0.237305 1.36054,0 1.77187,0.970313 h 0.0527 q 0.2795,-0.464063 0.75938,-0.717188 0.48516,-0.253125 1.09687,-0.253125 0.98086,0 1.46602,0.50625 0.49043,0.50625 0.49043,1.618946 v 3.770507 z"
       style="font-size:89.99999762%;text-anchor:middle"
       id="path5112" />
    <path
       d="m 157.95703,87.656462 q 0,1.418555 -0.71719,2.214844 -0.71718,0.796289 -1.98281,0.796289 -0.78574,0 -1.39219,-0.363867 -0.60644,-0.369141 -0.93339,-1.054688 -0.32696,-0.685547 -0.32696,-1.592578 0,-1.413281 0.70664,-2.199023 0.70664,-0.791016 1.98282,-0.791016 1.22343,0 1.94062,0.806836 0.72246,0.801563 0.72246,2.183203 z m -4.37168,0 q 0,1.091602 0.42715,1.661133 0.43242,0.564258 1.2709,0.564258 0.82793,0 1.26035,-0.564258 0.43242,-0.569531 0.43242,-1.661133 0,-1.091601 -0.43769,-1.640039 -0.43242,-0.553711 -1.2709,-0.553711 -1.68223,0 -1.68223,2.19375 z"
       style="font-size:89.99999762%;text-anchor:middle"
       id="path5114" />
    <path
       d="m 161.5166,90.667595 q -1.12852,0 -1.75078,-0.780469 -0.62227,-0.780468 -0.62227,-2.20957 0,-1.418555 0.62227,-2.214844 0.62754,-0.796289 1.76133,-0.796289 1.16543,0 1.79297,0.854297 h 0.0685 q -0.0158,-0.105468 -0.0422,-0.421875 -0.0264,-0.321679 -0.0264,-0.432422 v -2.309765 h 0.94921 v 8.205468 h -0.76464 l -0.14239,-0.775195 h -0.0422 q -0.60645,0.880664 -1.80352,0.880664 z m 0.15293,-0.785742 q 0.86484,0 1.26035,-0.469336 0.40078,-0.474609 0.40078,-1.550391 v -0.174023 q 0,-1.207617 -0.40605,-1.719141 -0.40078,-0.516796 -1.26563,-0.516796 -0.733,0 -1.13379,0.585351 -0.40078,0.580078 -0.40078,1.661133 0,1.075781 0.39551,1.629492 0.40078,0.553711 1.14961,0.553711 z"
       style="font-size:89.99999762%;text-anchor:middle"
       id="path5116" />
  </g>
  <g
     aria-label="sbj"
     style="font-size:89.99999762%;text-anchor:middle"
     id="text66">
    <path
       d="m 237.59473,88.964275 q 0,0.812109 -0.60645,1.260351 -0.60644,0.442969 -1.70332,0.442969 -1.14433,0 -1.81933,-0.363867 v -0.864844 q 0.95449,0.464063 1.84043,0.464063 0.71718,0 1.04414,-0.232032 0.32695,-0.232031 0.32695,-0.622265 0,-0.342774 -0.31641,-0.580078 -0.31113,-0.237305 -1.11269,-0.543164 -0.81739,-0.316407 -1.14961,-0.537891 -0.33223,-0.226758 -0.49043,-0.50625 -0.15293,-0.279492 -0.15293,-0.680273 0,-0.711914 0.58008,-1.123242 0.58007,-0.411329 1.59257,-0.411329 0.98614,0 1.84571,0.390235 l -0.32168,0.754101 q -0.88067,-0.36914 -1.58731,-0.36914 -0.59062,0 -0.89648,0.189843 -0.30586,0.184571 -0.30586,0.511524 0,0.316406 0.26367,0.527344 0.26367,0.205664 1.22871,0.574804 0.72246,0.268945 1.06524,0.500977 0.34804,0.232031 0.51152,0.52207 0.16348,0.290039 0.16348,0.696094 z"
       style="font-size:89.99999762%;text-anchor:middle"
       id="path5119" />
    <path
       d="m 241.73437,84.67697 q 1.14434,0 1.76661,0.791016 0.62226,0.785742 0.62226,2.199023 0,1.434375 -0.63281,2.220117 -0.63281,0.780469 -1.75606,0.780469 -0.58535,0 -1.04414,-0.210938 -0.45878,-0.210937 -0.74882,-0.627539 h -0.0738 q -0.16348,0.632813 -0.19512,0.733008 h -0.68027 v -8.205468 h 0.94922 v 1.993359 q 0,0.595899 -0.0527,1.191797 h 0.0527 q 0.58535,-0.864844 1.79296,-0.864844 z m -0.1582,0.785742 q -0.87539,0 -1.25508,0.495704 -0.37968,0.495703 -0.37968,1.676953 v 0.04219 q 0,1.186523 0.38496,1.698047 0.39023,0.50625 1.2709,0.50625 0.78046,0 1.16015,-0.569531 0.38496,-0.574805 0.38496,-1.65586 0,-1.096875 -0.38496,-1.645312 -0.38496,-0.548438 -1.18125,-0.548438 z"
       style="font-size:89.99999762%;text-anchor:middle"
       id="path5121" />
    <path
       d="m 244.95644,93.156657 q -0.4957,0 -0.8332,-0.131836 v -0.764648 q 0.36387,0.105469 0.71719,0.105469 0.41133,0 0.60117,-0.226758 0.19512,-0.221484 0.19512,-0.680274 v -6.686718 h 0.94922 v 6.655078 q 0,0.864844 -0.4166,1.297265 -0.41133,0.432422 -1.2129,0.432422 z m 0.60645,-9.950976 q 0,-0.316406 0.1582,-0.458789 0.16348,-0.142382 0.40078,-0.142382 0.22149,0 0.38497,0.142382 0.16875,0.142383 0.16875,0.458789 0,0.311133 -0.16875,0.458789 -0.16348,0.147657 -0.38497,0.147657 -0.2373,0 -0.40078,-0.147657 -0.1582,-0.147656 -0.1582,-0.458789 z"
       style="font-size:89.99999762%;text-anchor:middle"
       id="path5123" />
  </g>
  <g
     aria-label="root"
     style="font-size:89.99999762%;text-anchor:middle"
     id="text68">
    <path
       d="m 143.14922,66.049915 q 0.38496,0 0.68027,0.06328 l -0.11601,0.875391 q -0.32168,-0.07383 -0.62754,-0.07383 -0.45879,0 -0.8543,0.253125 -0.39023,0.253125 -0.61172,0.701367 -0.22148,0.442968 -0.22148,0.986133 v 3.090234 h -0.94922 v -5.790234 h 0.78047 l 0.10547,1.059961 h 0.0422 q 0.33223,-0.574805 0.78575,-0.870118 0.45351,-0.295312 0.98613,-0.295312 z"
       style="font-size:89.99999762%;text-anchor:middle"
       id="path5126" />
    <path
       d="m 149.84648,69.039954 q 0,1.418554 -0.71718,2.214843 -0.71719,0.796289 -1.98282,0.796289 -0.78574,0 -1.39218,-0.363867 -0.60645,-0.36914 -0.9334,-1.054687 -0.32695,-0.685547 -0.32695,-1.592578 0,-1.413281 0.70664,-2.199023 0.70664,-0.791016 1.98281,-0.791016 1.22344,0 1.94062,0.806836 0.72246,0.801562 0.72246,2.183203 z m -4.37167,0 q 0,1.091601 0.42714,1.661133 0.43243,0.564257 1.2709,0.564257 0.82793,0 1.26035,-0.564257 0.43243,-0.569532 0.43243,-1.661133 0,-1.091602 -0.4377,-1.640039 -0.43242,-0.553711 -1.2709,-0.553711 -1.68222,0 -1.68222,2.19375 z"
       style="font-size:89.99999762%;text-anchor:middle"
       id="path5128" />
    <path
       d="m 156.38555,69.039954 q 0,1.418554 -0.71719,2.214843 -0.71719,0.796289 -1.98281,0.796289 -0.78575,0 -1.39219,-0.363867 -0.60645,-0.36914 -0.9334,-1.054687 -0.32695,-0.685547 -0.32695,-1.592578 0,-1.413281 0.70664,-2.199023 0.70664,-0.791016 1.98281,-0.791016 1.22344,0 1.94063,0.806836 0.72246,0.801562 0.72246,2.183203 z m -4.37168,0 q 0,1.091601 0.42715,1.661133 0.43242,0.564257 1.27089,0.564257 0.82793,0 1.26036,-0.564257 0.43242,-0.569532 0.43242,-1.661133 0,-1.091602 -0.4377,-1.640039 -0.43242,-0.553711 -1.2709,-0.553711 -1.68222,0 -1.68222,2.19375 z"
       style="font-size:89.99999762%;text-anchor:middle"
       id="path5130" />
    <path
       d="m 159.8291,71.275891 q 0.18457,0 0.43242,-0.03691 0.24785,-0.03691 0.37442,-0.08438 v 0.727734 q -0.13184,0.05801 -0.41133,0.110743 -0.27422,0.05801 -0.55899,0.05801 -1.69804,0 -1.69804,-1.787695 v -3.369726 h -0.81738 v -0.453516 l 0.82792,-0.379687 0.37969,-1.233984 h 0.56426 v 1.328906 h 1.67168 v 0.738281 h -1.67168 v 3.343359 q 0,0.500977 0.2373,0.769922 0.24258,0.268945 0.66973,0.268945 z"
       style="font-size:89.99999762%;text-anchor:middle"
       id="path5132" />
  </g>
  <g
     aria-label="vc"
     style="font-size:89.99999762%;text-anchor:middle"
     id="text70">
    <path
       d="m 327.06211,90.562126 -2.19375,-5.790234 h 1.01777 l 1.22871,3.411914 q 0.36387,1.02832 0.46407,1.53457 h 0.0422 q 0.0158,-0.06855 0.0369,-0.152929 0.0264,-0.08965 0.058,-0.189844 0.0316,-0.105469 0.39023,-1.191797 l 1.23398,-3.411914 h 1.0125 l -2.19902,5.790234 z"
       style="font-size:89.99999762%;text-anchor:middle"
       id="path5135" />
    <path
       d="m 333.59062,90.667595 q -1.2498,0 -1.94589,-0.764648 -0.6961,-0.769922 -0.6961,-2.204297 0,-1.455469 0.70137,-2.241211 0.70664,-0.791016 2.00918,-0.791016 0.42187,0 0.8332,0.08965 0.4166,0.08437 0.68555,0.221484 l -0.29004,0.791016 q -0.73301,-0.274219 -1.2498,-0.274219 -0.87539,0 -1.292,0.553711 -0.4166,0.548437 -0.4166,1.640039 0,1.049414 0.4166,1.608398 0.41661,0.553711 1.23399,0.553711 0.76465,0 1.50293,-0.3375 v 0.84375 q -0.60117,0.311133 -1.49239,0.311133 z"
       style="font-size:89.99999762%;text-anchor:middle"
       id="path5137" />
  </g>
  <g
     aria-label="pp"
     style="font-size:89.99999762%;text-anchor:middle"
     id="text72">
    <path
       d="m 327.22031,72.051086 q -1.16543,0 -1.79297,-0.838476 h -0.0633 l 0.0211,0.216211 q 0.0422,0.411328 0.0422,0.733008 v 2.37832 h -0.94921 v -8.384765 h 0.78046 l 0.12657,0.791015 h 0.0422 q 0.3375,-0.474609 0.78047,-0.685547 0.44297,-0.210937 1.02305,-0.210937 1.12852,0 1.75078,0.785742 0.62754,0.780469 0.62754,2.204297 0,1.418554 -0.62754,2.214843 -0.62754,0.796289 -1.76133,0.796289 z m -0.1582,-5.204882 q -0.85957,0 -1.24453,0.485156 -0.37969,0.485156 -0.39024,1.524024 v 0.18457 q 0,1.175976 0.39024,1.70332 0.39023,0.52207 1.26562,0.52207 0.72774,0 1.13379,-0.590625 0.41133,-0.590625 0.41133,-1.645312 0,-1.059961 -0.41133,-1.618945 -0.40605,-0.564258 -1.15488,-0.564258 z"
       style="font-size:89.99999762%;text-anchor:middle"
       id="path5140" />
    <path
       d="m 333.86484,72.051086 q -1.16543,0 -1.79297,-0.838476 h -0.0633 l 0.0211,0.216211 q 0.0422,0.411328 0.0422,0.733008 v 2.37832 h -0.94921 v -8.384765 h 0.78046 l 0.12657,0.791015 h 0.0422 q 0.3375,-0.474609 0.78047,-0.685547 0.44297,-0.210937 1.02305,-0.210937 1.12852,0 1.75078,0.785742 0.62754,0.780469 0.62754,2.204297 0,1.418554 -0.62754,2.214843 -0.62754,0.796289 -1.76133,0.796289 z m -0.1582,-5.204882 q -0.85957,0 -1.24453,0.485156 -0.37969,0.485156 -0.39024,1.524024 v 0.18457 q 0,1.175976 0.39024,1.70332 0.39023,0.52207 1.26562,0.52207 0.72774,0 1.13379,-0.590625 0.41133,-0.590625 0.41133,-1.645312 0,-1.059961 -0.41133,-1.618945 -0.40605,-0.564258 -1.15488,-0.564258 z"
       style="font-size:89.99999762%;text-anchor:middle"
       id="path5142" />
  </g>
  <g
     aria-label="nmod"
     style="font-size:89.99999762%;text-anchor:middle"
     id="text74">
    <path
       d="m 590.08008,90.562126 v -3.701953 q 0,-0.70664 -0.31641,-1.049414 -0.31113,-0.348047 -0.98086,-0.348047 -0.89121,0 -1.29726,0.495704 -0.40078,0.490429 -0.40078,1.603124 v 3.000586 h -0.94922 v -5.790234 h 0.76465 l 0.14238,0.791016 h 0.0527 q 0.26895,-0.427149 0.7541,-0.65918 0.48516,-0.237305 1.07051,-0.237305 1.06524,0 1.58203,0.516797 0.5168,0.516797 0.5168,1.608399 v 3.770507 z"
       style="font-size:89.99999762%;text-anchor:middle"
       id="path5145" />
    <path
       d="m 600.18926,90.562126 v -3.72832 q 0,-1.371094 -1.17598,-1.371094 -0.80683,0 -1.18652,0.469336 -0.37969,0.469336 -0.37969,1.434375 v 3.195703 h -0.94394 v -3.72832 q 0,-0.685547 -0.29004,-1.02832 -0.28477,-0.342774 -0.89649,-0.342774 -0.80156,0 -1.17597,0.49043 -0.36914,0.49043 -0.36914,1.608398 v 3.000586 h -0.94922 v -5.790234 h 0.76464 l 0.14239,0.791016 h 0.0527 q 0.24785,-0.421875 0.6961,-0.65918 0.45351,-0.237305 1.0125,-0.237305 1.36054,0 1.77187,0.970313 h 0.0527 q 0.2795,-0.464063 0.75938,-0.717188 0.48516,-0.253125 1.09687,-0.253125 0.98086,0 1.46602,0.50625 0.49043,0.50625 0.49043,1.618946 v 3.770507 z"
       style="font-size:89.99999762%;text-anchor:middle"
       id="path5147" />
    <path
       d="m 607.95703,87.656462 q 0,1.418555 -0.71719,2.214844 -0.71718,0.796289 -1.98281,0.796289 -0.78574,0 -1.39219,-0.363867 -0.60644,-0.369141 -0.93339,-1.054688 -0.32696,-0.685547 -0.32696,-1.592578 0,-1.413281 0.70664,-2.199023 0.70664,-0.791016 1.98282,-0.791016 1.22343,0 1.94062,0.806836 0.72246,0.801563 0.72246,2.183203 z m -4.37168,0 q 0,1.091602 0.42715,1.661133 0.43242,0.564258 1.2709,0.564258 0.82793,0 1.26035,-0.564258 0.43242,-0.569531 0.43242,-1.661133 0,-1.091601 -0.43769,-1.640039 -0.43242,-0.553711 -1.2709,-0.553711 -1.68223,0 -1.68223,2.19375 z"
       style="font-size:89.99999762%;text-anchor:middle"
       id="path5149" />
    <path
       d="m 611.5166,90.667595 q -1.12852,0 -1.75078,-0.780469 -0.62227,-0.780468 -0.62227,-2.20957 0,-1.418555 0.62227,-2.214844 0.62754,-0.796289 1.76133,-0.796289 1.16543,0 1.79297,0.854297 h 0.0686 q -0.0158,-0.105468 -0.0422,-0.421875 -0.0264,-0.321679 -0.0264,-0.432422 v -2.309765 h 0.94921 v 8.205468 h -0.76464 l -0.14239,-0.775195 h -0.0422 q -0.60645,0.880664 -1.80352,0.880664 z m 0.15293,-0.785742 q 0.86484,0 1.26035,-0.469336 0.40078,-0.474609 0.40078,-1.550391 v -0.174023 q 0,-1.207617 -0.40605,-1.719141 -0.40078,-0.516796 -1.26563,-0.516796 -0.733,0 -1.13379,0.585351 -0.40078,0.580078 -0.40078,1.661133 0,1.075781 0.39551,1.629492 0.40078,0.553711 1.14961,0.553711 z"
       style="font-size:89.99999762%;text-anchor:middle"
       id="path5151" />
  </g>
  <g
     aria-label="np"
     style="font-size:89.99999762%;text-anchor:middle"
     id="text76">
    <path
       d="m 553.40156,71.945618 v -3.701953 q 0,-0.706641 -0.3164,-1.049414 -0.31114,-0.348047 -0.98086,-0.348047 -0.89121,0 -1.29727,0.495703 -0.40078,0.49043 -0.40078,1.603125 v 3.000586 h -0.94922 v -5.790234 h 0.76465 l 0.14238,0.791015 h 0.0527 q 0.26894,-0.427148 0.7541,-0.659179 0.48515,-0.237305 1.07051,-0.237305 1.06523,0 1.58203,0.516797 0.51679,0.516797 0.51679,1.608398 v 3.770508 z"
       style="font-size:89.99999762%;text-anchor:middle"
       id="path5154" />
    <path
       d="m 558.88594,72.051086 q -1.16543,0 -1.79297,-0.838476 h -0.0633 l 0.0211,0.216211 q 0.0422,0.411328 0.0422,0.733008 v 2.37832 h -0.94922 v -8.384765 h 0.78047 l 0.12656,0.791015 h 0.0422 q 0.3375,-0.474609 0.78047,-0.685547 0.44297,-0.210937 1.02304,-0.210937 1.12852,0 1.75079,0.785742 0.62753,0.780469 0.62753,2.204297 0,1.418554 -0.62753,2.214843 -0.62754,0.796289 -1.76133,0.796289 z m -0.15821,-5.204882 q -0.85957,0 -1.24453,0.485156 -0.37968,0.485156 -0.39023,1.524024 v 0.18457 q 0,1.175976 0.39023,1.70332 0.39024,0.52207 1.26563,0.52207 0.72773,0 1.13379,-0.590625 0.41133,-0.590625 0.41133,-1.645312 0,-1.059961 -0.41133,-1.618945 -0.40606,-0.564258 -1.15489,-0.564258 z"
       style="font-size:89.99999762%;text-anchor:middle"
       id="path5156" />
  </g>
  <g
     aria-label="tmp"
     style="font-size:89.99999762%;text-anchor:middle"
     id="text78">
    <path
       d="m 547.73262,43.207356 q 0.18457,0 0.43242,-0.03691 0.24785,-0.03691 0.37441,-0.08438 v 0.727735 q -0.13183,0.05801 -0.41132,0.110742 -0.27422,0.05801 -0.55899,0.05801 -1.69805,0 -1.69805,-1.787696 V 38.82513 h -0.81738 v -0.453516 l 0.82793,-0.379687 0.37969,-1.233984 h 0.56426 v 1.328906 h 1.67168 v 0.738281 h -1.67168 v 3.343359 q 0,0.500977 0.2373,0.769922 0.24258,0.268945 0.66973,0.268945 z"
       style="font-size:89.99999762%;text-anchor:middle"
       id="path5159" />
    <path
       d="m 557.0666,43.877083 v -3.72832 q 0,-1.371094 -1.17598,-1.371094 -0.80683,0 -1.18652,0.469336 -0.37969,0.469336 -0.37969,1.434375 v 3.195703 h -0.94394 v -3.72832 q 0,-0.685547 -0.29004,-1.02832 -0.28477,-0.342774 -0.89648,-0.342774 -0.80157,0 -1.17598,0.49043 -0.36914,0.490429 -0.36914,1.608398 v 3.000586 h -0.94922 v -5.790234 h 0.76465 l 0.14238,0.791015 h 0.0527 q 0.24785,-0.421875 0.69609,-0.659179 0.45351,-0.237305 1.0125,-0.237305 1.36055,0 1.77187,0.970313 h 0.0527 q 0.27949,-0.464063 0.75937,-0.717188 0.48516,-0.253125 1.09688,-0.253125 0.98086,0 1.46601,0.50625 0.49043,0.50625 0.49043,1.618945 v 3.770508 z"
       style="font-size:89.99999762%;text-anchor:middle"
       id="path5161" />
    <path
       d="m 562.5457,43.982552 q -1.16543,0 -1.79297,-0.838477 h -0.0633 l 0.0211,0.216211 q 0.0422,0.411328 0.0422,0.733008 v 2.37832 h -0.94921 v -8.384765 h 0.78046 l 0.12657,0.791015 h 0.0422 q 0.3375,-0.474609 0.78047,-0.685546 0.44297,-0.210938 1.02305,-0.210938 1.12852,0 1.75078,0.785742 0.62754,0.780469 0.62754,2.204297 0,1.418555 -0.62754,2.214844 -0.62754,0.796289 -1.76133,0.796289 z m -0.1582,-5.204883 q -0.85957,0 -1.24453,0.485156 -0.37969,0.485157 -0.39024,1.524024 v 0.18457 q 0,1.175976 0.39024,1.70332 0.39023,0.52207 1.26562,0.52207 0.72774,0 1.13379,-0.590625 0.41133,-0.590624 0.41133,-1.645312 0,-1.059961 -0.41133,-1.618945 -0.40605,-0.564258 -1.15488,-0.564258 z"
       style="font-size:89.99999762%;text-anchor:middle"
       id="path5163" />
  </g>
  <g
     aria-label="punct"
     style="font-size:89.99999762%;text-anchor:middle"
     id="text80">
    <path
       d="m 544.31016,7.2246089 q -1.16543,0 -1.79297,-0.8384765 h -0.0633 l 0.0211,0.2162109 q 0.0422,0.4113281 0.0422,0.7330078 v 2.3783201 h -0.94922 v -8.384765 h 0.78047 l 0.12656,0.7910156 h 0.0422 q 0.3375,-0.4746094 0.78047,-0.6855469 0.44297,-0.2109375 1.02304,-0.2109375 1.12852,0 1.75079,0.7857422 0.62753,0.7804687 0.62753,2.2042967 0,1.4185546 -0.62753,2.2148436 -0.62754,0.796289 -1.76133,0.796289 z m -0.15821,-5.2048825 q -0.85957,0 -1.24453,0.4851563 -0.37968,0.4851562 -0.39023,1.5240233 v 0.1845703 q 0,1.1759765 0.39023,1.7033202 0.39024,0.5220703 1.26563,0.5220703 0.72773,0 1.13379,-0.590625 0.41132,-0.590625 0.41132,-1.6453124 0,-1.0599608 -0.41132,-1.6189452 -0.40606,-0.5642578 -1.15489,-0.5642578 z"
       style="font-size:89.99999762%;text-anchor:middle"
       id="path5166" />
    <path
       d="m 549.10898,1.3289062 v 3.72832 q 0,0.7013672 0.31114,1.0441406 0.3164,0.3375 0.97558,0.3375 0.89121,0 1.29727,-0.4957031 0.40605,-0.4957031 0.40605,-1.5978515 v -3.016406 h 0.9545 v 5.7902339 h -0.78047 l -0.13711,-0.7646483 h -0.0475 q -0.2584,0.4166015 -0.73301,0.6433593 -0.47461,0.2267578 -1.10215,0.2267578 -1.04414,0 -1.57676,-0.5009765 -0.52734,-0.5009766 -0.52734,-1.6031249 V 1.3289062 Z"
       style="font-size:89.99999762%;text-anchor:middle"
       id="path5168" />
    <path
       d="M 558.84375,7.1191401 V 3.4171873 q 0,-0.7066406 -0.31641,-1.049414 -0.31113,-0.3480469 -0.98086,-0.3480469 -0.89121,0 -1.29726,0.4957031 -0.40078,0.4904297 -0.40078,1.6031249 v 3.0005857 h -0.94922 V 1.3289062 h 0.76465 l 0.14238,0.7910156 h 0.0527 q 0.26895,-0.4271485 0.75411,-0.6591797 0.48515,-0.2373047 1.0705,-0.2373047 1.06524,0 1.58203,0.5167969 0.5168,0.5167968 0.5168,1.6083983 v 3.7705075 z"
       style="font-size:89.99999762%;text-anchor:middle"
       id="path5170" />
    <path
       d="m 563.90625,7.2246089 q -1.24981,0 -1.9459,-0.7646484 -0.69609,-0.7699218 -0.69609,-2.2042967 0,-1.4554687 0.70136,-2.2412108 0.70664,-0.7910156 2.00918,-0.7910156 0.42188,0 0.83321,0.089649 0.4166,0.084375 0.68554,0.2214843 l -0.29004,0.7910156 q -0.733,-0.2742187 -1.2498,-0.2742187 -0.87539,0 -1.29199,0.5537109 -0.4166,0.5484374 -0.4166,1.6400389 0,1.049414 0.4166,1.6083983 0.4166,0.5537109 1.23398,0.5537109 0.76465,0 1.50293,-0.3374999 v 0.8437499 q -0.60117,0.3111328 -1.49238,0.3111328 z"
       style="font-size:89.99999762%;text-anchor:middle"
       id="path5172" />
    <path
       d="m 568.71035,6.4494136 q 0.18457,0 0.43242,-0.036914 0.24785,-0.036914 0.37442,-0.084375 v 0.7277343 q -0.13184,0.058008 -0.41133,0.1107422 -0.27422,0.058008 -0.55899,0.058008 -1.69804,0 -1.69804,-1.7876952 V 2.0671874 h -0.81739 V 1.6136718 L 566.85937,1.2339843 567.23906,2.6077032e-8 h 0.56426 V 1.3289062 h 1.67168 v 0.7382812 h -1.67168 v 3.3433591 q 0,0.5009765 0.2373,0.7699218 0.24258,0.2689453 0.66973,0.2689453 z"
       style="font-size:89.99999762%;text-anchor:middle"
       id="path5174" />
  </g>
  <path
     id="path82"
     d=""
     inkscape:connector-curvature="0" />
  <path
     class="arrow w1 w2"
     d="m 151.67649,97.562132 -2.94283,1.699044 v -3.398088 z"
     id="path84"
     style="fill:none;stroke:#a4a4a4;stroke-width:1.5;stroke-opacity:1"
     inkscape:connector-curvature="0" />
  <path
     class="arrow w2 w3"
     d="m 241.67649,97.562132 -2.94283,1.699044 v -3.398088 z"
     id="path86"
     style="fill:none;stroke:#a4a4a4;stroke-width:1.5;stroke-opacity:1"
     inkscape:connector-curvature="0" />
  <path
     class="arrow w3 w0"
     d="m 148.73366,78.945613 2.94283,-1.699044 v 3.398088 z"
     id="path88"
     style="fill:none;stroke:#a4a4a4;stroke-width:1.5;stroke-opacity:1"
     inkscape:connector-curvature="0" />
  <path
     class="arrow w4 w3"
     d="m 328.73366,97.562129 2.94283,-1.699044 v 3.398088 z"
     id="path90"
     style="fill:none;stroke:#a4a4a4;stroke-width:1.5;stroke-opacity:1"
     inkscape:connector-curvature="0" />
  <path
     class="arrow w5 w2"
     d="m 328.73366,78.945609 2.94283,-1.699044 v 3.398088 z"
     id="path92"
     style="fill:none;stroke:#a4a4a4;stroke-width:1.5;stroke-opacity:1"
     inkscape:connector-curvature="0" />
  <path
     class="arrow w6 w7"
     d="m 601.67649,97.562129 -2.94283,1.699044 v -3.398088 z"
     id="path94"
     style="fill:none;stroke:#a4a4a4;stroke-width:1.5;stroke-opacity:1"
     inkscape:connector-curvature="0" />
  <path
     class="arrow w7 w5"
     d="m 553.73366,78.945609 2.94283,-1.699044 v 3.398088 z"
     id="path96"
     style="fill:none;stroke:#a4a4a4;stroke-width:1.5;stroke-opacity:1"
     inkscape:connector-curvature="0" />
  <path
     class="arrow w8 w4"
     d="m 553.73366,50.877069 2.94283,-1.699044 v 3.398088 z"
     id="path98"
     style="fill:none;stroke:#a4a4a4;stroke-width:1.5;stroke-opacity:1"
     inkscape:connector-curvature="0" />
  <path
     class="arrow w9 w3"
     d="m 553.73366,14.119149 2.94283,-1.699044 v 3.398088 z"
     id="path100"
     style="fill:none;stroke:#a4a4a4;stroke-width:1.5;stroke-opacity:1"
     inkscape:connector-curvature="0" />
</svg>
