<?xml version="1.0" encoding="UTF-8" standalone="no"?>
<svg
   xmlns:dc="http://purl.org/dc/elements/1.1/"
   xmlns:cc="http://creativecommons.org/ns#"
   xmlns:rdf="http://www.w3.org/1999/02/22-rdf-syntax-ns#"
   xmlns:svg="http://www.w3.org/2000/svg"
   xmlns="http://www.w3.org/2000/svg"
   xmlns:sodipodi="http://sodipodi.sourceforge.net/DTD/sodipodi-0.dtd"
   xmlns:inkscape="http://www.inkscape.org/namespaces/inkscape"
   height="78.927452"
   width="430.52969"
   version="1.1"
   id="svg62"
   sodipodi:docname="dep.svg"
   inkscape:version="0.92.1 r">
  <metadata
     id="metadata68">
    <rdf:RDF>
      <cc:Work
         rdf:about="">
        <dc:format>image/svg+xml</dc:format>
        <dc:type
           rdf:resource="http://purl.org/dc/dcmitype/StillImage" />
        <dc:title></dc:title>
      </cc:Work>
    </rdf:RDF>
  </metadata>
  <defs
     id="defs66" />
  <sodipodi:namedview
     pagecolor="#ffffff"
     bordercolor="#666666"
     borderopacity="1"
     objecttolerance="10"
     gridtolerance="10"
     guidetolerance="10"
     inkscape:pageopacity="0"
     inkscape:pageshadow="2"
     inkscape:window-width="1364"
     inkscape:window-height="748"
     id="namedview64"
     showgrid="false"
     inkscape:zoom="1.425"
     inkscape:cx="196.08591"
     inkscape:cy="79.376702"
     inkscape:window-x="0"
     inkscape:window-y="18"
     inkscape:window-maximized="0"
     inkscape:current-layer="svg62" />
  <g
     aria-label="ROOT"
     style="text-anchor:middle"
     id="text2">
    <path
       d="m 1.078125,54.368858 h 1.2832031 q 1.0429688,0 1.5234375,-0.410156 0.4804688,-0.410156 0.4804688,-1.21875 0,-0.808594 -0.4863281,-1.177734 -0.4863282,-0.375 -1.5761719,-0.375 H 1.078125 Z m 0,0.914063 v 3.539062 H 0 v -8.566406 h 2.3613281 q 1.59375,0 2.3554688,0.609375 0.7675781,0.603516 0.7675781,1.822266 0,1.705078 -1.7167969,2.296875 l 2.3496094,3.83789 H 4.8574219 L 2.7832031,55.282921 Z"
       style="text-anchor:middle"
       id="path4678" />
    <path
       d="m 14.953125,54.527061 q 0,2.056641 -1.042969,3.234375 -1.037109,1.177735 -2.90625,1.177735 -1.8925779,0 -2.9296872,-1.154297 -1.0312501,-1.160156 -1.0312501,-3.269531 0,-2.091797 1.0253907,-3.240235 1.03125,-1.154297 2.9472656,-1.154297 1.863281,0 2.900391,1.171875 1.037109,1.166016 1.037109,3.234375 z m -6.7734375,0 q 0,1.699219 0.7207031,2.589844 0.7207032,0.890625 2.1035154,0.890625 1.376953,0 2.091797,-0.878906 0.714844,-0.878906 0.714844,-2.601563 0,-1.716796 -0.708984,-2.583984 -0.708985,-0.873047 -2.085938,-0.873047 -1.3945312,0 -2.1152344,0.884766 -0.7207031,0.878906 -0.7207031,2.572265 z"
       style="text-anchor:middle"
       id="path4680" />
    <path
       d="m 24.328125,54.527061 q 0,2.056641 -1.042969,3.234375 -1.037109,1.177735 -2.90625,1.177735 -1.892578,0 -2.929687,-1.154297 -1.03125,-1.160156 -1.03125,-3.269531 0,-2.091797 1.02539,-3.240235 1.03125,-1.154297 2.947266,-1.154297 1.863281,0 2.900391,1.171875 1.037109,1.166016 1.037109,3.234375 z m -6.773438,0 q 0,1.699219 0.720704,2.589844 0.720703,0.890625 2.103515,0.890625 1.376953,0 2.091797,-0.878906 0.714844,-0.878906 0.714844,-2.601563 0,-1.716796 -0.708985,-2.583984 -0.708984,-0.873047 -2.085937,-0.873047 -1.394531,0 -2.115234,0.884766 -0.720704,0.878906 -0.720704,2.572265 z"
       style="text-anchor:middle"
       id="path4682" />
    <path
       d="m 28.775391,58.821983 h -1.083985 v -7.617187 h -2.677734 v -0.949219 h 6.421875 v 0.949219 h -2.660156 z"
       style="text-anchor:middle"
       id="path4684" />
  </g>
  <g
     aria-label="The"
     style="text-anchor:middle"
     id="text4">
    <path
       d="m 88.642578,58.821983 h -1.083984 v -7.617187 h -2.677735 v -0.949219 h 6.421875 v 0.949219 h -2.660156 z"
       style="text-anchor:middle"
       id="path4687" />
    <path
       d="m 96.845703,58.821983 v -4.113281 q 0,-0.785156 -0.351562,-1.166016 -0.345704,-0.386718 -1.089844,-0.386718 -0.978516,0 -1.435547,0.544922 -0.451172,0.544921 -0.451172,1.798828 v 3.322265 h -1.054687 v -9.117187 h 1.054687 v 2.671875 q 0,0.527344 -0.05859,0.902344 h 0.07031 q 0.287109,-0.46875 0.814453,-0.732422 0.527344,-0.263672 1.189453,-0.263672 1.171875,0 1.763672,0.5625 0.591797,0.55664 0.591797,1.787109 v 4.189453 z"
       style="text-anchor:middle"
       id="path4689" />
    <path
       d="m 102.62891,58.939171 q -1.44727,0 -2.27344,-0.873047 -0.820314,-0.878906 -0.820314,-2.414063 0,-1.546875 0.767574,-2.460937 0.76758,-0.919922 2.07422,-0.919922 1.21289,0 1.9336,0.785156 0.7207,0.779297 0.7207,2.115235 v 0.638672 H 100.625 q 0.0293,1.095703 0.55664,1.664062 0.52734,0.568359 1.49414,0.568359 0.51563,0 0.97852,-0.08789 0.46289,-0.09375 1.08398,-0.357422 v 0.925781 q -0.5332,0.228516 -1.00195,0.322266 -0.46875,0.09375 -1.10742,0.09375 z m -0.26368,-5.806641 q -0.75585,0 -1.19531,0.486328 -0.43945,0.486328 -0.52148,1.353516 h 3.27539 q -0.0117,-0.902344 -0.41602,-1.371094 -0.40429,-0.46875 -1.14258,-0.46875 z"
       style="text-anchor:middle"
       id="path4691" />
  </g>
  <g
     aria-label="chef"
     style="text-anchor:middle"
     id="text6">
    <path
       d="m 166.75586,58.939171 q -1.38867,0 -2.16211,-0.84961 -0.77344,-0.855468 -0.77344,-2.449218 0,-1.617188 0.7793,-2.490235 0.78516,-0.878906 2.23242,-0.878906 0.46875,0 0.92578,0.09961 0.46289,0.09375 0.76172,0.246094 l -0.32226,0.878906 q -0.81446,-0.304687 -1.38868,-0.304687 -0.97265,0 -1.43554,0.615234 -0.46289,0.609375 -0.46289,1.822266 0,1.166016 0.46289,1.787109 0.46289,0.615235 1.37109,0.615235 0.84961,0 1.66992,-0.375 v 0.9375 q -0.66797,0.345703 -1.6582,0.345703 z"
       style="text-anchor:middle"
       id="path4694" />
    <path
       d="m 174.32617,58.821983 v -4.113281 q 0,-0.785156 -0.35156,-1.166016 -0.3457,-0.386718 -1.08984,-0.386718 -0.97852,0 -1.43555,0.544922 -0.45117,0.544921 -0.45117,1.798828 v 3.322265 h -1.05469 v -9.117187 h 1.05469 v 2.671875 q 0,0.527344 -0.0586,0.902344 h 0.0703 q 0.2871,-0.46875 0.81445,-0.732422 0.52734,-0.263672 1.18945,-0.263672 1.17188,0 1.76367,0.5625 0.5918,0.55664 0.5918,1.787109 v 4.189453 z"
       style="text-anchor:middle"
       id="path4696" />
    <path
       d="m 180.10937,58.939171 q -1.44726,0 -2.27343,-0.873047 -0.82032,-0.878906 -0.82032,-2.414063 0,-1.546875 0.76758,-2.460937 0.76758,-0.919922 2.07422,-0.919922 1.21289,0 1.9336,0.785156 0.7207,0.779297 0.7207,2.115235 v 0.638672 h -4.40625 q 0.0293,1.095703 0.55664,1.664062 0.52734,0.568359 1.49414,0.568359 0.51562,0 0.97852,-0.08789 0.46289,-0.09375 1.08398,-0.357422 v 0.925781 q -0.5332,0.228516 -1.00195,0.322266 -0.46875,0.09375 -1.10743,0.09375 z M 179.8457,53.13253 q -0.75586,0 -1.19531,0.486328 -0.43945,0.486328 -0.52148,1.353516 h 3.27539 q -0.0117,-0.902344 -0.41602,-1.371094 -0.4043,-0.46875 -1.14258,-0.46875 z"
       style="text-anchor:middle"
       id="path4698" />
    <path
       d="m 187.11133,53.208702 h -1.62305 v 5.613281 h -1.05469 v -5.613281 h -1.125 v -0.492187 l 1.125,-0.363282 v -0.36914 q 0,-1.171875 0.50977,-1.757813 0.51562,-0.585937 1.58203,-0.585937 0.61523,0 1.24805,0.216797 l -0.28125,0.826171 q -0.54492,-0.175781 -0.95508,-0.175781 -0.5332,0 -0.79102,0.351563 -0.25781,0.351562 -0.25781,1.113281 v 0.416016 h 1.62305 z"
       style="text-anchor:middle"
       id="path4700" />
  </g>
  <g
     aria-label="cooks"
     style="text-anchor:middle"
     id="text8">
    <path
       d="m 242.57228,58.939171 q -1.38867,0 -2.16211,-0.84961 -0.77344,-0.855468 -0.77344,-2.449218 0,-1.617188 0.7793,-2.490235 0.78516,-0.878906 2.23242,-0.878906 0.46875,0 0.92578,0.09961 0.46289,0.09375 0.76172,0.246094 l -0.32226,0.878906 q -0.81446,-0.304687 -1.38867,-0.304687 -0.97266,0 -1.43555,0.615234 -0.46289,0.609375 -0.46289,1.822266 0,1.166016 0.46289,1.787109 0.46289,0.615235 1.37109,0.615235 0.84961,0 1.66992,-0.375 v 0.9375 q -0.66796,0.345703 -1.6582,0.345703 z"
       style="text-anchor:middle"
       id="path4703" />
    <path
       d="m 251.34962,55.593468 q 0,1.576172 -0.79687,2.460937 -0.79688,0.884766 -2.20313,0.884766 -0.87304,0 -1.54687,-0.404297 -0.67383,-0.410156 -1.03711,-1.171875 -0.36328,-0.761719 -0.36328,-1.769531 0,-1.570313 0.78516,-2.44336 0.78515,-0.878906 2.20312,-0.878906 1.35938,0 2.15625,0.896484 0.80273,0.890625 0.80273,2.425782 z m -4.85742,0 q 0,1.21289 0.47461,1.845703 0.48047,0.626953 1.41211,0.626953 0.91992,0 1.40039,-0.626953 0.48047,-0.632813 0.48047,-1.845703 0,-1.212891 -0.48633,-1.822266 -0.48047,-0.615234 -1.41211,-0.615234 -1.86914,0 -1.86914,2.4375 z"
       style="text-anchor:middle"
       id="path4705" />
    <path
       d="m 258.61525,55.593468 q 0,1.576172 -0.79688,2.460937 -0.79687,0.884766 -2.20312,0.884766 -0.87305,0 -1.54688,-0.404297 -0.67382,-0.410156 -1.0371,-1.171875 -0.36329,-0.761719 -0.36329,-1.769531 0,-1.570313 0.78516,-2.44336 0.78516,-0.878906 2.20313,-0.878906 1.35937,0 2.15625,0.896484 0.80273,0.890625 0.80273,2.425782 z m -4.85742,0 q 0,1.21289 0.47461,1.845703 0.48047,0.626953 1.41211,0.626953 0.91992,0 1.40039,-0.626953 0.48047,-0.632813 0.48047,-1.845703 0,-1.212891 -0.48633,-1.822266 -0.48047,-0.615234 -1.41211,-0.615234 -1.86914,0 -1.86914,2.4375 z"
       style="text-anchor:middle"
       id="path4707" />
    <path
       d="m 261.334,55.511436 0.35742,-0.457031 0.41016,-0.492187 2.05664,-2.173828 h 1.23047 l -2.60157,2.748046 2.78321,3.685547 h -1.27149 l -2.23242,-3 -0.73242,0.638672 v 2.361328 h -1.04297 v -9.117187 h 1.04297 v 4.763672 l -0.0469,1.042968 z"
       style="text-anchor:middle"
       id="path4709" />
    <path
       d="m 270.90236,57.046593 q 0,0.902343 -0.67383,1.40039 -0.67383,0.492188 -1.89258,0.492188 -1.27148,0 -2.02148,-0.404297 v -0.960938 q 1.06055,0.515625 2.04492,0.515625 0.79688,0 1.16016,-0.257812 0.36328,-0.257813 0.36328,-0.691406 0,-0.38086 -0.35156,-0.644532 -0.34571,-0.263671 -1.23633,-0.603515 -0.90821,-0.351563 -1.27735,-0.597656 -0.36914,-0.251954 -0.54492,-0.5625 -0.16992,-0.310547 -0.16992,-0.75586 0,-0.791015 0.64453,-1.248047 0.64453,-0.457031 1.76953,-0.457031 1.09571,0 2.05078,0.433594 l -0.35742,0.83789 q -0.97851,-0.410156 -1.76367,-0.410156 -0.65625,0 -0.99609,0.210938 -0.33985,0.205078 -0.33985,0.568359 0,0.351563 0.29297,0.585938 0.29297,0.228515 1.36524,0.638671 0.80273,0.298829 1.18359,0.556641 0.38672,0.257813 0.56836,0.580078 0.18164,0.322266 0.18164,0.773438 z"
       style="text-anchor:middle"
       id="path4711" />
  </g>
  <g
     aria-label="the"
     style="text-anchor:middle"
     id="text10">
    <path
       d="m 329.10547,58.077843 q 0.20508,0 0.48047,-0.04102 0.27539,-0.04102 0.41601,-0.09375 v 0.808594 q -0.14648,0.06445 -0.45703,0.123047 -0.30469,0.06445 -0.62109,0.06445 -1.88672,0 -1.88672,-1.986328 v -3.744141 h -0.9082 v -0.503906 l 0.91992,-0.421875 0.42187,-1.371094 h 0.62696 v 1.476563 h 1.85742 v 0.820312 h -1.85742 v 3.714844 q 0,0.55664 0.26367,0.855469 0.26953,0.298828 0.74414,0.298828 z"
       style="text-anchor:middle"
       id="path4714" />
    <path
       d="m 335.67383,58.821983 v -4.113281 q 0,-0.785156 -0.35156,-1.166016 -0.34571,-0.386718 -1.08985,-0.386718 -0.97851,0 -1.43555,0.544922 -0.45117,0.544921 -0.45117,1.798828 v 3.322265 h -1.05468 v -9.117187 h 1.05468 v 2.671875 q 0,0.527344 -0.0586,0.902344 h 0.0703 q 0.28711,-0.46875 0.81445,-0.732422 0.52735,-0.263672 1.18946,-0.263672 1.17187,0 1.76367,0.5625 0.5918,0.55664 0.5918,1.787109 v 4.189453 z"
       style="text-anchor:middle"
       id="path4716" />
    <path
       d="m 341.45703,58.939171 q -1.44726,0 -2.27344,-0.873047 -0.82031,-0.878906 -0.82031,-2.414063 0,-1.546875 0.76758,-2.460937 0.76758,-0.919922 2.07422,-0.919922 1.21289,0 1.93359,0.785156 0.7207,0.779297 0.7207,2.115235 v 0.638672 h -4.40625 q 0.0293,1.095703 0.55665,1.664062 0.52734,0.568359 1.49414,0.568359 0.51562,0 0.97851,-0.08789 0.46289,-0.09375 1.08399,-0.357422 v 0.925781 q -0.53321,0.228516 -1.00196,0.322266 -0.46875,0.09375 -1.10742,0.09375 z m -0.26367,-5.806641 q -0.75586,0 -1.19531,0.486328 -0.43946,0.486328 -0.52149,1.353516 h 3.27539 q -0.0117,-0.902344 -0.41601,-1.371094 -0.4043,-0.46875 -1.14258,-0.46875 z"
       style="text-anchor:middle"
       id="path4718" />
  </g>
  <g
     aria-label="soup"
     style="text-anchor:middle"
     id="text12">
    <path
       d="m 406.50391,57.046593 q 0,0.902343 -0.67383,1.40039 -0.67383,0.492188 -1.89258,0.492188 -1.27148,0 -2.02148,-0.404297 v -0.960938 q 1.06054,0.515625 2.04492,0.515625 0.79687,0 1.16015,-0.257812 0.36328,-0.257813 0.36328,-0.691406 0,-0.38086 -0.35156,-0.644532 -0.3457,-0.263671 -1.23633,-0.603515 -0.9082,-0.351563 -1.27734,-0.597656 -0.36914,-0.251954 -0.54492,-0.5625 -0.16992,-0.310547 -0.16992,-0.75586 0,-0.791015 0.64453,-1.248047 0.64453,-0.457031 1.76953,-0.457031 1.0957,0 2.05078,0.433594 l -0.35742,0.83789 q -0.97852,-0.410156 -1.76367,-0.410156 -0.65625,0 -0.9961,0.210938 -0.33984,0.205078 -0.33984,0.568359 0,0.351563 0.29297,0.585938 0.29297,0.228515 1.36523,0.638671 0.80274,0.298829 1.1836,0.556641 0.38671,0.257813 0.56836,0.580078 0.18164,0.322266 0.18164,0.773438 z"
       style="text-anchor:middle"
       id="path4721" />
    <path
       d="m 413.64648,55.593468 q 0,1.576172 -0.79687,2.460937 -0.79688,0.884766 -2.20313,0.884766 -0.87304,0 -1.54687,-0.404297 -0.67383,-0.410156 -1.03711,-1.171875 -0.36328,-0.761719 -0.36328,-1.769531 0,-1.570313 0.78515,-2.44336 0.78516,-0.878906 2.20313,-0.878906 1.35937,0 2.15625,0.896484 0.80273,0.890625 0.80273,2.425782 z m -4.85742,0 q 0,1.21289 0.47461,1.845703 0.48047,0.626953 1.41211,0.626953 0.91992,0 1.40039,-0.626953 0.48047,-0.632813 0.48047,-1.845703 0,-1.212891 -0.48633,-1.822266 -0.48047,-0.615234 -1.41211,-0.615234 -1.86914,0 -1.86914,2.4375 z"
       style="text-anchor:middle"
       id="path4723" />
    <path
       d="m 416.31836,52.38839 v 4.142578 q 0,0.779297 0.3457,1.160156 0.35156,0.375 1.08399,0.375 0.99023,0 1.4414,-0.550781 0.45117,-0.550782 0.45117,-1.775391 V 52.38839 h 1.06055 v 6.433593 h -0.86719 l -0.15234,-0.849609 h -0.0527 q -0.28711,0.462891 -0.81446,0.714844 -0.52734,0.251953 -1.22461,0.251953 -1.16015,0 -1.75195,-0.556641 -0.58594,-0.55664 -0.58594,-1.78125 v -4.21289 z"
       style="text-anchor:middle"
       id="path4725" />
    <path
       d="m 425.79883,58.939171 q -1.29492,0 -1.99219,-0.931641 h -0.0703 l 0.0234,0.240235 q 0.0469,0.457031 0.0469,0.814453 v 2.642578 h -1.05469 V 52.38839 h 0.86719 l 0.14063,0.878906 h 0.0469 q 0.375,-0.527344 0.86719,-0.761719 0.49219,-0.234375 1.13672,-0.234375 1.2539,0 1.94531,0.873047 0.69726,0.867187 0.69726,2.449219 0,1.576172 -0.69726,2.460937 -0.69727,0.884766 -1.95703,0.884766 z m -0.17578,-5.783203 q -0.95508,0 -1.38282,0.539062 -0.42187,0.539063 -0.43359,1.69336 v 0.205078 q 0,1.30664 0.43359,1.892578 0.4336,0.580078 1.40625,0.580078 0.8086,0 1.25977,-0.65625 0.45703,-0.65625 0.45703,-1.828125 0,-1.177734 -0.45703,-1.798828 -0.45117,-0.626953 -1.2832,-0.626953 z"
       style="text-anchor:middle"
       id="path4727" />
  </g>
  <g
     aria-label="ROOT"
     style="font-size:89.99999762%;text-anchor:middle;opacity:1;fill:#a0a0a0;fill-opacity:1"
     id="text14">
    <path
       d="m 2.4908212,66.626618 h 1.1548827 q 0.9386719,0 1.3710937,-0.369141 0.4324218,-0.36914 0.4324218,-1.096875 0,-0.727734 -0.4376952,-1.059961 -0.4376953,-0.3375 -1.4185546,-0.3375 H 2.4908212 Z m 0,0.822656 V 70.63443 H 1.5205088 v -7.709765 h 2.1251951 q 1.4343749,0 2.1199218,0.548437 0.6908202,0.543164 0.6908202,1.640039 0,1.53457 -1.545117,2.067188 L 7.0259771,70.63443 H 5.8921882 L 4.0253914,67.449274 Z"
       style="font-size:89.99999762%;text-anchor:middle;opacity:1;fill:#a0a0a0;fill-opacity:1"
       id="path4730" />
    <path
       d="m 14.97832,66.769001 q 0,1.850976 -0.938672,2.910937 -0.933398,1.059961 -2.615624,1.059961 -1.7033206,0 -2.636719,-1.038867 -0.9281249,-1.044141 -0.9281249,-2.942578 0,-1.882617 0.9228515,-2.916211 0.9281249,-1.038867 2.6525384,-1.038867 1.676953,0 2.610352,1.054687 0.933398,1.049414 0.933398,2.910938 z m -6.0960931,0 q 0,1.529296 0.6486328,2.330859 0.6486323,0.801562 1.8931643,0.801562 1.239257,0 1.882617,-0.791015 Q 13.95,68.319391 13.95,66.769001 q 0,-1.545118 -0.638086,-2.325586 -0.638086,-0.785742 -1.877344,-0.785742 -1.255078,0 -1.9037103,0.796289 -0.6486328,0.791015 -0.6486328,2.315039 z"
       style="font-size:89.99999762%;text-anchor:middle;opacity:1;fill:#a0a0a0;fill-opacity:1"
       id="path4732" />
    <path
       d="m 23.415819,66.769001 q 0,1.850976 -0.938672,2.910937 -0.933398,1.059961 -2.615624,1.059961 -1.703321,0 -2.636719,-1.038867 -0.928125,-1.044141 -0.928125,-2.942578 0,-1.882617 0.922852,-2.916211 0.928125,-1.038867 2.652539,-1.038867 1.676953,0 2.610351,1.054687 0.933398,1.049414 0.933398,2.910938 z m -6.096093,0 q 0,1.529296 0.648633,2.330859 0.648632,0.801562 1.893164,0.801562 1.239257,0 1.882617,-0.791015 0.643359,-0.791016 0.643359,-2.341406 0,-1.545118 -0.638086,-2.325586 -0.638086,-0.785742 -1.877343,-0.785742 -1.255079,0 -1.903711,0.796289 -0.648633,0.791015 -0.648633,2.315039 z"
       style="font-size:89.99999762%;text-anchor:middle;opacity:1;fill:#a0a0a0;fill-opacity:1"
       id="path4734" />
    <path
       d="M 27.418359,70.63443 H 26.442774 V 63.778962 H 24.032813 V 62.924665 H 29.8125 v 0.854297 h -2.394141 z"
       style="font-size:89.99999762%;text-anchor:middle;opacity:1;fill:#a0a0a0;fill-opacity:1"
       id="path4736" />
  </g>
  <g
     aria-label="DET"
     style="font-size:89.99999762%;text-anchor:middle;opacity:1;fill:#a0a0a0;fill-opacity:1"
     id="text16">
    <path
       d="m 92.473438,66.705719 q 0,1.908985 -1.044141,2.921484 -1.038867,1.007227 -2.984765,1.007227 h -2.146289 v -7.709765 h 2.373047 q 1.798242,0 2.800195,0.991406 1.001953,0.986133 1.001953,2.789648 z m -1.023047,0.03164 q 0,-1.471289 -0.727734,-2.225391 -0.722461,-0.759375 -2.188477,-0.759375 h -1.265625 v 6.048633 h 1.049414 q 3.132422,0 3.132422,-3.063867 z"
       style="font-size:89.99999762%;text-anchor:middle;opacity:1;fill:#a0a0a0;fill-opacity:1"
       id="path4739" />
    <path
       d="m 98.495703,70.63443 h -4.308398 v -7.709765 h 4.308398 v 0.854297 h -3.338086 v 2.404687 h 3.142969 v 0.84375 h -3.142969 v 2.752734 h 3.338086 z"
       style="font-size:89.99999762%;text-anchor:middle;opacity:1;fill:#a0a0a0;fill-opacity:1"
       id="path4741" />
    <path
       d="m 102.64062,70.63443 h -0.97558 v -6.855468 h -2.409963 v -0.854297 h 5.779683 v 0.854297 h -2.39414 z"
       style="font-size:89.99999762%;text-anchor:middle;opacity:1;fill:#a0a0a0;fill-opacity:1"
       id="path4743" />
  </g>
  <g
     aria-label="NOUN"
     style="font-size:89.99999762%;text-anchor:middle;opacity:1;fill:#a0a0a0;fill-opacity:1"
     id="text18">
    <path
       d="m 165.99766,70.63443 h -1.13379 l -4.1291,-6.401953 h -0.0422 l 0.0264,0.427149 q 0.0633,0.959765 0.0633,1.666406 v 4.308398 h -0.89649 v -7.709765 h 1.12325 l 0.2373,0.374414 2.53125,3.91289 1.34473,2.093555 h 0.0422 q -0.0105,-0.126563 -0.0422,-0.901758 -0.0316,-0.780469 -0.0316,-1.128516 v -4.350585 h 0.90703 z"
       style="font-size:89.99999762%;text-anchor:middle;opacity:1;fill:#a0a0a0;fill-opacity:1"
       id="path4746" />
    <path
       d="m 174.82012,66.769001 q 0,1.850976 -0.93867,2.910937 -0.9334,1.059961 -2.61563,1.059961 -1.70332,0 -2.63672,-1.038867 -0.92812,-1.044141 -0.92812,-2.942578 0,-1.882617 0.92285,-2.916211 0.92812,-1.038867 2.65254,-1.038867 1.67695,0 2.61035,1.054687 0.9334,1.049414 0.9334,2.910938 z m -6.0961,0 q 0,1.529296 0.64864,2.330859 0.64863,0.801562 1.89316,0.801562 1.23926,0 1.88262,-0.791015 0.64336,-0.791016 0.64336,-2.341406 0,-1.545118 -0.63809,-2.325586 -0.63808,-0.785742 -1.87734,-0.785742 -1.25508,0 -1.90371,0.796289 -0.64864,0.791015 -0.64864,2.315039 z"
       style="font-size:89.99999762%;text-anchor:middle;opacity:1;fill:#a0a0a0;fill-opacity:1"
       id="path4748" />
    <path
       d="m 182.39277,62.924665 v 4.988671 q 0,1.31836 -0.79629,2.072461 -0.79629,0.754102 -2.20957,0.754102 -1.39746,0 -2.16738,-0.759375 -0.76992,-0.764649 -0.76992,-2.088281 v -4.967578 h 0.97558 v 4.999218 q 0,0.943945 0.50098,1.460742 0.50625,0.516797 1.51875,0.516797 0.95449,0 1.46602,-0.511523 0.51679,-0.511524 0.51679,-1.476563 v -4.988671 z"
       style="font-size:89.99999762%;text-anchor:middle;opacity:1;fill:#a0a0a0;fill-opacity:1"
       id="path4750" />
    <path
       d="m 190.52969,70.63443 h -1.13379 l -4.12911,-6.401953 h -0.0422 l 0.0264,0.427149 q 0.0633,0.959765 0.0633,1.666406 v 4.308398 h -0.89649 v -7.709765 h 1.12324 l 0.23731,0.374414 2.53125,3.91289 1.34472,2.093555 h 0.0422 q -0.0105,-0.126563 -0.0422,-0.901758 -0.0316,-0.780469 -0.0316,-1.128516 v -4.350585 h 0.90704 z"
       style="font-size:89.99999762%;text-anchor:middle;opacity:1;fill:#a0a0a0;fill-opacity:1"
       id="path4752" />
  </g>
  <g
     aria-label="VERB"
     style="font-size:89.99999762%;text-anchor:middle;opacity:1;fill:#a0a0a0;fill-opacity:1"
     id="text20">
    <path
       d="m 242.08478,62.924665 h 1.01778 l 1.73496,4.946484 q 0.33222,0.938672 0.48515,1.682226 0.13184,-0.664453 0.49043,-1.70332 l 1.72442,-4.92539 h 1.02832 l -2.75274,7.709765 h -0.97558 z"
       style="font-size:89.99999762%;text-anchor:middle;opacity:1;fill:#a0a0a0;fill-opacity:1"
       id="path4755" />
    <path
       d="m 253.91837,70.63443 h -4.30839 v -7.709765 h 4.30839 v 0.854297 h -3.33808 v 2.404687 h 3.14297 v 0.84375 h -3.14297 v 2.752734 h 3.33808 z"
       style="font-size:89.99999762%;text-anchor:middle;opacity:1;fill:#a0a0a0;fill-opacity:1"
       id="path4757" />
    <path
       d="m 256.59201,66.626618 h 1.15488 q 0.93867,0 1.37109,-0.369141 0.43243,-0.36914 0.43243,-1.096875 0,-0.727734 -0.4377,-1.059961 -0.43769,-0.3375 -1.41855,-0.3375 h -1.10215 z m 0,0.822656 v 3.185156 h -0.97031 v -7.709765 h 2.12519 q 1.43438,0 2.11992,0.548437 0.69082,0.543164 0.69082,1.640039 0,1.53457 -1.54511,2.067188 l 2.11464,3.454101 h -1.13379 l -1.86679,-3.185156 z"
       style="font-size:89.99999762%;text-anchor:middle;opacity:1;fill:#a0a0a0;fill-opacity:1"
       id="path4759" />
    <path
       d="m 262.3506,62.924665 h 2.19902 q 1.55039,0 2.23594,0.464062 0.69082,0.458789 0.69082,1.444922 0,0.685547 -0.37441,1.133789 -0.37442,0.442969 -1.0916,0.574805 v 0.05273 q 0.89121,0.15293 1.30781,0.616992 0.42187,0.464063 0.42187,1.228711 0,1.033594 -0.70664,1.613672 -0.70664,0.580078 -1.97226,0.580078 h -2.71055 z m 0.97031,3.280078 h 1.42383 q 0.90703,0 1.31836,-0.290039 0.41133,-0.290039 0.41133,-0.970313 0,-0.632812 -0.45352,-0.912304 -0.44824,-0.279493 -1.42383,-0.279493 h -1.27617 z m 0,0.812109 v 2.794922 h 1.55567 q 0.92812,0 1.37636,-0.358594 0.44825,-0.358594 0.44825,-1.086328 0,-0.69082 -0.47461,-1.017773 -0.47461,-0.332227 -1.42383,-0.332227 z"
       style="font-size:89.99999762%;text-anchor:middle;opacity:1;fill:#a0a0a0;fill-opacity:1"
       id="path4761" />
  </g>
  <g
     aria-label="DET"
     style="font-size:89.99999762%;text-anchor:middle;opacity:1;fill:#a0a0a0;fill-opacity:1"
     id="text22">
    <path
       d="m 332.47344,66.705719 q 0,1.908985 -1.04414,2.921484 -1.03887,1.007227 -2.98477,1.007227 h -2.14629 v -7.709765 h 2.37305 q 1.79824,0 2.80019,0.991406 1.00196,0.986133 1.00196,2.789648 z m -1.02305,0.03164 q 0,-1.471289 -0.72773,-2.225391 -0.72246,-0.759375 -2.18848,-0.759375 h -1.26562 v 6.048633 h 1.04941 q 3.13242,0 3.13242,-3.063867 z"
       style="font-size:89.99999762%;text-anchor:middle;opacity:1;fill:#a0a0a0;fill-opacity:1"
       id="path4764" />
    <path
       d="m 338.4957,70.63443 h -4.3084 v -7.709765 h 4.3084 v 0.854297 h -3.33808 v 2.404687 h 3.14297 v 0.84375 h -3.14297 v 2.752734 h 3.33808 z"
       style="font-size:89.99999762%;text-anchor:middle;opacity:1;fill:#a0a0a0;fill-opacity:1"
       id="path4766" />
    <path
       d="m 342.64062,70.63443 h -0.97558 v -6.855468 h -2.40996 v -0.854297 h 5.77968 v 0.854297 h -2.39414 z"
       style="font-size:89.99999762%;text-anchor:middle;opacity:1;fill:#a0a0a0;fill-opacity:1"
       id="path4768" />
  </g>
  <g
     aria-label="NOUN"
     style="font-size:89.99999762%;text-anchor:middle;opacity:1;fill:#a0a0a0;fill-opacity:1"
     id="text24">
    <path
       d="m 405.99766,70.63443 h -1.13379 l -4.1291,-6.401953 h -0.0422 l 0.0264,0.427149 q 0.0633,0.959765 0.0633,1.666406 v 4.308398 h -0.89649 v -7.709765 h 1.12325 l 0.2373,0.374414 2.53125,3.91289 1.34473,2.093555 h 0.0422 q -0.0105,-0.126563 -0.0422,-0.901758 -0.0316,-0.780469 -0.0316,-1.128516 v -4.350585 h 0.90703 z"
       style="font-size:89.99999762%;text-anchor:middle;opacity:1;fill:#a0a0a0;fill-opacity:1"
       id="path4771" />
    <path
       d="m 414.82012,66.769001 q 0,1.850976 -0.93867,2.910937 -0.9334,1.059961 -2.61563,1.059961 -1.70332,0 -2.63672,-1.038867 -0.92812,-1.044141 -0.92812,-2.942578 0,-1.882617 0.92285,-2.916211 0.92812,-1.038867 2.65254,-1.038867 1.67695,0 2.61035,1.054687 0.9334,1.049414 0.9334,2.910938 z m -6.0961,0 q 0,1.529296 0.64864,2.330859 0.64863,0.801562 1.89316,0.801562 1.23926,0 1.88262,-0.791015 0.64336,-0.791016 0.64336,-2.341406 0,-1.545118 -0.63809,-2.325586 -0.63808,-0.785742 -1.87734,-0.785742 -1.25508,0 -1.90371,0.796289 -0.64864,0.791015 -0.64864,2.315039 z"
       style="font-size:89.99999762%;text-anchor:middle;opacity:1;fill:#a0a0a0;fill-opacity:1"
       id="path4773" />
    <path
       d="m 422.39277,62.924665 v 4.988671 q 0,1.31836 -0.79629,2.072461 -0.79629,0.754102 -2.20957,0.754102 -1.39746,0 -2.16738,-0.759375 -0.76992,-0.764649 -0.76992,-2.088281 v -4.967578 h 0.97558 v 4.999218 q 0,0.943945 0.50098,1.460742 0.50625,0.516797 1.51875,0.516797 0.95449,0 1.46602,-0.511523 0.51679,-0.511524 0.51679,-1.476563 v -4.988671 z"
       style="font-size:89.99999762%;text-anchor:middle;opacity:1;fill:#a0a0a0;fill-opacity:1"
       id="path4775" />
    <path
       d="m 430.52969,70.63443 h -1.13379 l -4.12911,-6.401953 h -0.0422 l 0.0264,0.427149 q 0.0633,0.959765 0.0633,1.666406 v 4.308398 h -0.89649 v -7.709765 h 1.12324 l 0.23731,0.374414 2.53125,3.91289 1.34472,2.093555 h 0.0422 q -0.0105,-0.126563 -0.0422,-0.901758 -0.0316,-0.780469 -0.0316,-1.128516 v -4.350585 h 0.90704 z"
       style="font-size:89.99999762%;text-anchor:middle;opacity:1;fill:#a0a0a0;fill-opacity:1"
       id="path4777" />
  </g>
  <path
     id="path26"
     d=""
     inkscape:connector-curvature="0" />
  <path
     class="edge w1 w2"
     d="m 95.205076,42.821985 c 20.000004,-12 60.000004,-12 80.000004,0"
     id="path28"
     inkscape:connector-curvature="0"
     style="fill:none;stroke:#a0a0a0;stroke-width:1.5;stroke-opacity:1" />
  <path
     class="edge w2 w3"
     d="m 175.20508,42.821985 c 20,-12 60,-12 80,0"
     id="path30"
     inkscape:connector-curvature="0"
     style="fill:none;stroke:#a0a0a0;stroke-width:1.5;stroke-opacity:1" />
  <path
     class="edge w3 w0"
     d="m 255.20508,42.821985 c -60,-36.8220227 -180.000004,-36.8220227 -240.000001,0"
     id="path32"
     inkscape:connector-curvature="0"
     style="fill:none;stroke:#a0a0a0;stroke-width:1.5;stroke-opacity:1" />
  <path
     class="edge w4 w5"
     d="m 335.20508,42.821985 c 20,-12 60,-12 80,0"
     id="path34"
     inkscape:connector-curvature="0"
     style="fill:none;stroke:#a0a0a0;stroke-width:1.5;stroke-opacity:1" />
  <path
     class="edge w5 w3"
     d="m 415.20508,42.821985 c -40,-36.8220227 -120,-36.8220227 -160,0"
     id="path36"
     inkscape:connector-curvature="0"
     style="fill:none;stroke:#a0a0a0;stroke-width:1.5;stroke-opacity:1" />
  <g
     style=""
     id="text38" />
  <g
     aria-label="det"
     style="font-size:89.99999762%;text-anchor:middle"
     id="text40">
    <path
       d="m 129.85254,26.927454 q -1.12852,0 -1.75078,-0.780469 -0.62227,-0.780468 -0.62227,-2.20957 0,-1.418554 0.62227,-2.214843 0.62754,-0.796289 1.76133,-0.796289 1.16543,0 1.79296,0.854296 h 0.0686 q -0.0158,-0.105468 -0.0422,-0.421875 -0.0264,-0.321679 -0.0264,-0.432421 v -2.309766 h 0.94922 v 8.205468 h -0.76464 l -0.14239,-0.775195 h -0.0422 q -0.60644,0.880664 -1.80351,0.880664 z m 0.15293,-0.785742 q 0.86484,0 1.26035,-0.469336 0.40078,-0.474609 0.40078,-1.550391 v -0.174023 q 0,-1.207617 -0.40605,-1.71914 -0.40078,-0.516797 -1.26563,-0.516797 -0.73301,0 -1.13379,0.585351 -0.40078,0.580078 -0.40078,1.661133 0,1.075781 0.39551,1.629492 0.40078,0.553711 1.14961,0.553711 z"
       style="font-size:89.99999762%;text-anchor:middle"
       id="path4781" />
    <path
       d="m 136.9084,26.927454 q -1.30254,0 -2.0461,-0.785742 -0.73828,-0.791016 -0.73828,-2.172656 0,-1.392188 0.69082,-2.214844 0.69082,-0.827929 1.8668,-0.827929 1.0916,0 1.74023,0.70664 0.64864,0.701367 0.64864,1.903711 v 0.574805 h -3.96563 q 0.0264,0.986132 0.50098,1.497656 0.47461,0.511523 1.34473,0.511523 0.46406,0 0.88066,-0.0791 0.4166,-0.08437 0.97559,-0.32168 v 0.833203 q -0.47989,0.205664 -0.90176,0.290039 -0.42188,0.08438 -0.99668,0.08438 z m -0.23731,-5.225976 q -0.68027,0 -1.07578,0.437695 -0.39551,0.437695 -0.46933,1.218164 h 2.94785 q -0.0105,-0.812109 -0.37442,-1.233984 -0.36386,-0.421875 -1.02832,-0.421875 z"
       style="font-size:89.99999762%;text-anchor:middle"
       id="path4783" />
    <path
       d="m 142.47715,26.152259 q 0.18457,0 0.43242,-0.03691 0.24785,-0.03691 0.37441,-0.08438 v 0.727734 q -0.13183,0.05801 -0.41132,0.110742 -0.27422,0.05801 -0.55899,0.05801 -1.69805,0 -1.69805,-1.787695 v -3.369727 h -0.81738 v -0.453515 l 0.82793,-0.379688 0.37969,-1.233984 h 0.56426 v 1.328906 h 1.67168 v 0.738281 h -1.67168 v 3.34336 q 0,0.500976 0.2373,0.769921 0.24258,0.268946 0.66973,0.268946 z"
       style="font-size:89.99999762%;text-anchor:middle"
       id="path4785" />
  </g>
  <g
     aria-label="nsubj"
     style="font-size:89.99999762%;text-anchor:middle"
     id="text42">
    <path
       d="m 206.08203,26.821985 v -3.701953 q 0,-0.70664 -0.3164,-1.049414 -0.31114,-0.348046 -0.98086,-0.348046 -0.89121,0 -1.29727,0.495703 -0.40078,0.490429 -0.40078,1.603125 v 3.000585 h -0.94922 v -5.790234 h 0.76465 l 0.14238,0.791016 h 0.0527 q 0.26894,-0.427149 0.7541,-0.65918 0.48515,-0.237304 1.07051,-0.237304 1.06523,0 1.58203,0.516796 0.51679,0.516797 0.51679,1.608399 v 3.770507 z"
       style="font-size:89.99999762%;text-anchor:middle"
       id="path4788" />
    <path
       d="m 212.59473,25.224134 q 0,0.812109 -0.60645,1.260351 -0.60644,0.442969 -1.70332,0.442969 -1.14433,0 -1.81933,-0.363867 v -0.864844 q 0.95449,0.464063 1.84043,0.464063 0.71718,0 1.04414,-0.232032 0.32695,-0.232031 0.32695,-0.622265 0,-0.342774 -0.31641,-0.580078 -0.31113,-0.237305 -1.11269,-0.543164 -0.81739,-0.316407 -1.14961,-0.537891 -0.33223,-0.226758 -0.49043,-0.50625 -0.15293,-0.279492 -0.15293,-0.680273 0,-0.711914 0.58008,-1.123242 0.58007,-0.411328 1.59257,-0.411328 0.98614,0 1.84571,0.390234 l -0.32168,0.754101 q -0.88067,-0.36914 -1.58731,-0.36914 -0.59062,0 -0.89648,0.189844 -0.30586,0.18457 -0.30586,0.511523 0,0.316406 0.26367,0.527344 0.26367,0.205664 1.22871,0.574804 0.72246,0.268946 1.06524,0.500977 0.34804,0.232031 0.51152,0.52207 0.16348,0.290039 0.16348,0.696094 z"
       style="font-size:89.99999762%;text-anchor:middle"
       id="path4790" />
    <path
       d="m 214.88867,21.031751 v 3.72832 q 0,0.701367 0.31113,1.044141 0.31641,0.3375 0.97559,0.3375 0.89121,0 1.29727,-0.495703 0.40605,-0.495703 0.40605,-1.597852 v -3.016406 h 0.95449 v 5.790234 h -0.78047 l -0.13711,-0.764648 h -0.0475 q -0.25839,0.416601 -0.733,0.643359 -0.47461,0.226758 -1.10215,0.226758 -1.04414,0 -1.57676,-0.500977 -0.52734,-0.500976 -0.52734,-1.603124 v -3.791602 z"
       style="font-size:89.99999762%;text-anchor:middle"
       id="path4792" />
    <path
       d="m 223.42109,20.936829 q 1.14434,0 1.7666,0.791016 0.62227,0.785742 0.62227,2.199023 0,1.434375 -0.63281,2.220117 -0.63281,0.780469 -1.75606,0.780469 -0.58535,0 -1.04414,-0.210937 -0.45879,-0.210938 -0.74883,-0.62754 h -0.0738 q -0.16348,0.632813 -0.19512,0.733008 h -0.68027 v -8.205468 h 0.94921 v 1.993359 q 0,0.595899 -0.0527,1.191797 h 0.0527 q 0.58536,-0.864844 1.79297,-0.864844 z m -0.1582,0.785743 q -0.87539,0 -1.25508,0.495703 -0.37969,0.495703 -0.37969,1.676953 v 0.04219 q 0,1.186523 0.38497,1.698047 0.39023,0.50625 1.27089,0.50625 0.78047,0 1.16016,-0.569531 0.38496,-0.574805 0.38496,-1.65586 0,-1.096875 -0.38496,-1.645312 -0.38496,-0.548437 -1.18125,-0.548437 z"
       style="font-size:89.99999762%;text-anchor:middle"
       id="path4794" />
    <path
       d="m 226.64316,29.416516 q -0.4957,0 -0.8332,-0.131836 v -0.764648 q 0.36387,0.105469 0.71719,0.105469 0.41133,0 0.60117,-0.226758 0.19512,-0.221484 0.19512,-0.680273 v -6.686719 h 0.94922 v 6.655078 q 0,0.864844 -0.41661,1.297265 -0.41132,0.432422 -1.21289,0.432422 z m 0.60645,-9.950976 q 0,-0.316406 0.1582,-0.458789 0.16348,-0.142382 0.40078,-0.142382 0.22149,0 0.38496,0.142382 0.16875,0.142383 0.16875,0.458789 0,0.311133 -0.16875,0.458789 -0.16347,0.147657 -0.38496,0.147657 -0.2373,0 -0.40078,-0.147657 -0.1582,-0.147656 -0.1582,-0.458789 z"
       style="font-size:89.99999762%;text-anchor:middle"
       id="path4796" />
  </g>
  <g
     aria-label="root"
     style="font-size:89.99999762%;text-anchor:middle"
     id="text44">
    <path
       d="m 128.14922,2.3097655 q 0.38496,0 0.68027,0.063281 l -0.11601,0.8753906 q -0.32168,-0.073828 -0.62754,-0.073828 -0.45879,0 -0.8543,0.2531249 -0.39023,0.253125 -0.61172,0.7013672 -0.22148,0.4429687 -0.22148,0.9861327 v 3.0902342 h -0.94922 v -5.790234 h 0.78047 l 0.10547,1.0599609 h 0.0422 q 0.33223,-0.5748047 0.78575,-0.8701172 0.45351,-0.2953124 0.98613,-0.2953124 z"
       style="font-size:89.99999762%;text-anchor:middle"
       id="path4799" />
    <path
       d="m 134.84648,5.2998043 q 0,1.4185546 -0.71718,2.2148436 -0.71719,0.796289 -1.98282,0.796289 -0.78574,0 -1.39218,-0.3638671 -0.60645,-0.3691406 -0.9334,-1.0546875 -0.32695,-0.6855468 -0.32695,-1.592578 0,-1.4132811 0.70664,-2.1990233 0.70664,-0.7910155 1.98281,-0.7910155 1.22344,0 1.94062,0.8068358 0.72246,0.8015625 0.72246,2.183203 z m -4.37167,0 q 0,1.0916015 0.42714,1.6611327 0.43243,0.5642578 1.2709,0.5642578 0.82793,0 1.26035,-0.5642578 0.43243,-0.5695312 0.43243,-1.6611327 0,-1.0916015 -0.4377,-1.6400389 -0.43242,-0.5537109 -1.2709,-0.5537109 -1.68222,0 -1.68222,2.1937498 z"
       style="font-size:89.99999762%;text-anchor:middle"
       id="path4801" />
    <path
       d="m 141.38555,5.2998043 q 0,1.4185546 -0.71719,2.2148436 -0.71719,0.796289 -1.98281,0.796289 -0.78575,0 -1.39219,-0.3638671 -0.60645,-0.3691406 -0.9334,-1.0546875 -0.32695,-0.6855468 -0.32695,-1.592578 0,-1.4132811 0.70664,-2.1990233 0.70664,-0.7910155 1.98281,-0.7910155 1.22344,0 1.94063,0.8068358 0.72246,0.8015625 0.72246,2.183203 z m -4.37168,0 q 0,1.0916015 0.42715,1.6611327 0.43242,0.5642578 1.27089,0.5642578 0.82793,0 1.26036,-0.5642578 0.43242,-0.5695312 0.43242,-1.6611327 0,-1.0916015 -0.4377,-1.6400389 -0.43242,-0.5537109 -1.2709,-0.5537109 -1.68222,0 -1.68222,2.1937498 z"
       style="font-size:89.99999762%;text-anchor:middle"
       id="path4803" />
    <path
       d="m 144.8291,7.5357417 q 0.18457,0 0.43242,-0.036914 0.24785,-0.036914 0.37442,-0.084375 v 0.7277343 q -0.13184,0.058008 -0.41133,0.1107422 -0.27422,0.058008 -0.55899,0.058008 -1.69804,0 -1.69804,-1.7876952 V 3.1535154 H 142.1502 V 2.6999998 l 0.82792,-0.3796875 0.37969,-1.2339842 h 0.56426 v 1.3289061 h 1.67168 v 0.7382812 h -1.67168 v 3.3433591 q 0,0.5009766 0.2373,0.7699219 0.24258,0.2689453 0.66973,0.2689453 z"
       style="font-size:89.99999762%;text-anchor:middle"
       id="path4805" />
  </g>
  <g
     aria-label="det"
     style="font-size:89.99999762%;text-anchor:middle"
     id="text46">
    <path
       d="m 369.85254,26.927454 q -1.12852,0 -1.75078,-0.780469 -0.62227,-0.780468 -0.62227,-2.20957 0,-1.418554 0.62227,-2.214843 0.62754,-0.796289 1.76133,-0.796289 1.16543,0 1.79296,0.854296 h 0.0686 q -0.0158,-0.105468 -0.0422,-0.421875 -0.0264,-0.321679 -0.0264,-0.432421 v -2.309766 h 0.94922 v 8.205468 h -0.76464 l -0.14239,-0.775195 h -0.0422 q -0.60644,0.880664 -1.80351,0.880664 z m 0.15293,-0.785742 q 0.86484,0 1.26035,-0.469336 0.40078,-0.474609 0.40078,-1.550391 v -0.174023 q 0,-1.207617 -0.40605,-1.71914 -0.40078,-0.516797 -1.26563,-0.516797 -0.73301,0 -1.13379,0.585351 -0.40078,0.580078 -0.40078,1.661133 0,1.075781 0.39551,1.629492 0.40078,0.553711 1.14961,0.553711 z"
       style="font-size:89.99999762%;text-anchor:middle"
       id="path4808" />
    <path
       d="m 376.9084,26.927454 q -1.30254,0 -2.0461,-0.785742 -0.73828,-0.791016 -0.73828,-2.172656 0,-1.392188 0.69082,-2.214844 0.69082,-0.827929 1.8668,-0.827929 1.0916,0 1.74023,0.70664 0.64864,0.701367 0.64864,1.903711 v 0.574805 h -3.96563 q 0.0264,0.986132 0.50098,1.497656 0.47461,0.511523 1.34473,0.511523 0.46406,0 0.88066,-0.0791 0.4166,-0.08437 0.97559,-0.32168 v 0.833203 q -0.47989,0.205664 -0.90176,0.290039 -0.42188,0.08438 -0.99668,0.08438 z m -0.23731,-5.225976 q -0.68027,0 -1.07578,0.437695 -0.39551,0.437695 -0.46933,1.218164 h 2.94785 q -0.0105,-0.812109 -0.37442,-1.233984 -0.36386,-0.421875 -1.02832,-0.421875 z"
       style="font-size:89.99999762%;text-anchor:middle"
       id="path4810" />
    <path
       d="m 382.47715,26.152259 q 0.18457,0 0.43242,-0.03691 0.24785,-0.03691 0.37441,-0.08438 v 0.727734 q -0.13183,0.05801 -0.41132,0.110742 -0.27422,0.05801 -0.55899,0.05801 -1.69805,0 -1.69805,-1.787695 v -3.369727 h -0.81738 v -0.453515 l 0.82793,-0.379688 0.37969,-1.233984 h 0.56426 v 1.328906 h 1.67168 v 0.738281 h -1.67168 v 3.34336 q 0,0.500976 0.2373,0.769921 0.24258,0.268946 0.66973,0.268946 z"
       style="font-size:89.99999762%;text-anchor:middle"
       id="path4812" />
  </g>
  <g
     aria-label="dobj"
     style="font-size:89.99999762%;text-anchor:middle"
     id="text48">
    <path
       d="m 326.86777,8.3109369 q -1.12851,0 -1.75078,-0.7804687 -0.62226,-0.7804687 -0.62226,-2.2095701 0,-1.4185546 0.62226,-2.2148436 0.62754,-0.796289 1.76133,-0.796289 1.16543,0 1.79297,0.8542968 h 0.0686 q -0.0158,-0.1054688 -0.0422,-0.421875 -0.0264,-0.3216797 -0.0264,-0.4324218 V 0 h 0.94922 v 8.2054682 h -0.76465 l -0.14238,-0.7751953 h -0.0422 q -0.60645,0.880664 -1.80352,0.880664 z m 0.15293,-0.7857421 q 0.86485,0 1.26036,-0.4693359 0.40078,-0.4746094 0.40078,-1.5503905 V 5.3314449 q 0,-1.2076171 -0.40606,-1.7191405 -0.40078,-0.5167968 -1.26562,-0.5167968 -0.73301,0 -1.13379,0.5853515 -0.40078,0.5800781 -0.40078,1.6611327 0,1.0757812 0.3955,1.6294921 0.40079,0.5537109 1.14961,0.5537109 z"
       style="font-size:89.99999762%;text-anchor:middle"
       id="path4815" />
    <path
       d="m 336.4918,5.2998043 q 0,1.4185546 -0.71719,2.2148436 -0.71719,0.796289 -1.98281,0.796289 -0.78575,0 -1.39219,-0.3638671 -0.60645,-0.3691406 -0.9334,-1.0546875 -0.32695,-0.6855468 -0.32695,-1.592578 0,-1.4132811 0.70664,-2.1990233 0.70664,-0.7910155 1.98281,-0.7910155 1.22344,0 1.94063,0.8068358 0.72246,0.8015625 0.72246,2.183203 z m -4.37168,0 q 0,1.0916015 0.42715,1.6611327 0.43242,0.5642578 1.27089,0.5642578 0.82793,0 1.26036,-0.5642578 0.43242,-0.5695312 0.43242,-1.6611327 0,-1.0916015 -0.4377,-1.6400389 -0.43242,-0.5537109 -1.2709,-0.5537109 -1.68222,0 -1.68222,2.1937498 z"
       style="font-size:89.99999762%;text-anchor:middle"
       id="path4817" />
    <path
       d="m 340.74219,2.3203123 q 1.14433,0 1.7666,0.7910156 0.62226,0.7857421 0.62226,2.1990233 0,1.4343749 -0.63281,2.220117 -0.63281,0.7804687 -1.75605,0.7804687 -0.58535,0 -1.04414,-0.2109375 -0.45879,-0.2109374 -0.74883,-0.627539 h -0.0738 q -0.16348,0.6328125 -0.19512,0.7330078 H 338 V 0 h 0.94922 v 1.9933592 q 0,0.5958984 -0.0527,1.1917968 h 0.0527 q 0.58535,-0.8648437 1.79297,-0.8648437 z m -0.15821,0.7857422 q -0.87539,0 -1.25507,0.4957031 -0.37969,0.4957031 -0.37969,1.676953 v 0.042187 q 0,1.1865233 0.38496,1.6980467 0.39023,0.50625 1.2709,0.50625 0.78047,0 1.16015,-0.5695312 0.38496,-0.5748047 0.38496,-1.6558593 0,-1.0968749 -0.38496,-1.6453124 -0.38496,-0.5484374 -1.18125,-0.5484374 z"
       style="font-size:89.99999762%;text-anchor:middle"
       id="path4819" />
    <path
       d="m 343.96426,10.799999 q -0.49571,0 -0.83321,-0.131836 V 9.9035149 q 0.36387,0.1054691 0.71719,0.1054691 0.41133,0 0.60117,-0.2267581 0.19512,-0.2214844 0.19512,-0.6802734 V 2.4152342 h 0.94922 v 6.6550777 q 0,0.8648437 -0.4166,1.2972651 -0.41133,0.432422 -1.21289,0.432422 z m 0.60644,-9.95097562 q 0,-0.31640622 0.15821,-0.45878903 0.16347,-0.1423828 0.40078,-0.1423828 0.22148,0 0.38496,0.1423828 0.16875,0.14238281 0.16875,0.45878903 0,0.31113282 -0.16875,0.45878902 -0.16348,0.1476563 -0.38496,0.1476563 -0.23731,0 -0.40078,-0.1476563 -0.15821,-0.1476562 -0.15821,-0.45878902 z"
       style="font-size:89.99999762%;text-anchor:middle"
       id="path4821" />
  </g>
  <path
     id="path50"
     d=""
     inkscape:connector-curvature="0" />
  <path
     class="arrow w1 w2"
     d="m 136.6765,33.821987 -2.94283,1.699045 v -3.398089 z"
     id="path52"
     inkscape:connector-curvature="0"
     style="fill:none;stroke:#a0a0a0;stroke-width:1.5;stroke-opacity:1" />
  <path
     class="arrow w2 w3"
     d="m 216.6765,33.821982 -2.94283,1.699045 v -3.398089 z"
     id="path54"
     inkscape:connector-curvature="0"
     style="fill:none;stroke:#a0a0a0;stroke-width:1.5;stroke-opacity:1" />
  <path
     class="arrow w3 w0"
     d="m 133.73366,15.205467 2.94283,-1.699044 v 3.398089 z"
     id="path56"
     inkscape:connector-curvature="0"
     style="fill:none;stroke:#a0a0a0;stroke-width:1.5;stroke-opacity:1" />
  <path
     class="arrow w4 w5"
     d="m 376.6765,33.821982 -2.94283,1.699045 v -3.398089 z"
     id="path58"
     inkscape:connector-curvature="0"
     style="fill:none;stroke:#a0a0a0;stroke-width:1.5;stroke-opacity:1" />
  <path
     class="arrow w5 w3"
     d="m 333.73366,15.205472 2.94283,-1.699044 v 3.398089 z"
     id="path60"
     inkscape:connector-curvature="0"
     style="fill:none;stroke:#a0a0a0;stroke-width:1.5;stroke-opacity:1" />
</svg>
