<svg height="233.1949159194239" xmlns="http://www.w3.org/2000/svg" width="826.6666666666667"><text class="word w0" x="53.333333333333336" y="203.1949159194239" text-anchor="middle">ROOT</text><text class="word w1" x="133.33333333333334" y="203.1949159194239" text-anchor="middle">bogumił</text><text class="word w2" x="213.33333333333334" y="203.1949159194239" text-anchor="middle">zamilkł</text><text class="word w3" x="293.3333333333333" y="203.1949159194239" text-anchor="middle">tak</text><text class="word w4" x="373.3333333333333" y="203.1949159194239" text-anchor="middle">,</text><text class="word w5" x="453.3333333333333" y="203.1949159194239" text-anchor="middle">że</text><text class="word w6" x="533.3333333333334" y="203.1949159194239" text-anchor="middle">prawie</text><text class="word w7" x="613.3333333333334" y="203.1949159194239" text-anchor="middle">przestał</text><text class="word w8" x="693.3333333333334" y="203.1949159194239" text-anchor="middle">oddychać</text><text class="word w9" x="773.3333333333334" y="203.1949159194239" text-anchor="middle">.</text><text class="tag w0" x="53.333333333333336" y="223.1949159194239" opacity="50%" text-anchor="middle" font-size="90%">ROOT</text><text class="tag w1 active" x="133.33333333333334" y="223.1949159194239" opacity="50%" text-anchor="middle" font-size="90%">VERB _</text><text class="tag w2" x="213.33333333333334" y="223.1949159194239" opacity="50%" text-anchor="middle" font-size="90%">VERB _</text><text class="tag w3" x="293.3333333333333" y="223.1949159194239" opacity="50%" text-anchor="middle" font-size="90%">ADV _</text><text class="tag w4" x="373.3333333333333" y="223.1949159194239" opacity="50%" text-anchor="middle" font-size="90%">PUNCT _</text><text class="tag w5" x="453.3333333333333" y="223.1949159194239" opacity="50%" text-anchor="middle" font-size="90%">SCONJ _</text><text class="tag w6 active" x="533.3333333333334" y="223.1949159194239" opacity="50%" text-anchor="middle" font-size="90%">PART _</text><text class="tag w7" x="613.3333333333334" y="223.1949159194239" opacity="50%" text-anchor="middle" font-size="90%">VERB _</text><text class="tag w8" x="693.3333333333334" y="223.1949159194239" opacity="50%" text-anchor="middle" font-size="90%">VERB _</text><text class="tag w9" x="773.3333333333334" y="223.1949159194239" opacity="50%" text-anchor="middle" font-size="90%">PUNCT _</text><path></path><path class="edge w1 w0" d="M133.33333333333334,187.1949159194239 C113.33333333333334,175.1949159194239 73.33333333333334,175.1949159194239 53.333333333333336,187.1949159194239" fill="none" stroke="black" stroke-width="1.5"></path><path class="edge w2 w1" d="M213.33333333333334,187.1949159194239 C193.33333333333334,175.1949159194239 153.33333333333334,175.1949159194239 133.33333333333334,187.1949159194239" fill="none" stroke="black" stroke-width="1.5"></path><path class="edge w3 w2" d="M293.3333333333333,187.1949159194239 C273.3333333333333,175.1949159194239 233.33333333333331,175.1949159194239 213.33333333333334,187.1949159194239" fill="none" stroke="black" stroke-width="1.5"></path><path class="edge w4 w7" d="M373.3333333333333,187.1949159194239 C433.33333333333337,112.94817536100314 553.3333333333334,112.94817536100314 613.3333333333334,187.1949159194239" fill="none" stroke="black" stroke-width="1.5"></path><path class="edge w5 w7" d="M453.3333333333333,187.1949159194239 C493.33333333333337,150.37289338757893 573.3333333333334,150.37289338757893 613.3333333333334,187.1949159194239" fill="none" stroke="black" stroke-width="1.5"></path><path class="edge w6 w7" d="M533.3333333333334,187.1949159194239 C553.3333333333334,175.1949159194239 593.3333333333334,175.1949159194239 613.3333333333334,187.1949159194239" fill="none" stroke="black" stroke-width="1.5"></path><path class="edge w7 w2" d="M613.3333333333334,187.1949159194239 C513.3333333333334,63.93759059859204 313.33333333333337,63.93759059859204 213.33333333333334,187.1949159194239" fill="none" stroke="black" stroke-width="1.5"></path><path class="edge w8 w7" d="M693.3333333333334,187.1949159194239 C673.3333333333334,175.1949159194239 633.3333333333334,175.1949159194239 613.3333333333334,187.1949159194239" fill="none" stroke="black" stroke-width="1.5"></path><path class="edge w9 w1" d="M773.3333333333334,187.1949159194239 C613.3333333333334,4 293.33333333333337,4 133.33333333333334,187.1949159194239" fill="none" stroke="black" stroke-width="1.5"></path><text></text><text class="dependency w1 w0" x="93.33333333333334" y="171.1949159194239" text-anchor="middle" font-size="90%">root</text><text class="dependency w2 w1" x="173.33333333333334" y="171.1949159194239" text-anchor="middle" font-size="90%">xcomp</text><text class="dependency w3 w2" x="253.33333333333331" y="171.1949159194239" text-anchor="middle" font-size="90%">advmod</text><text class="dependency w4 w7" x="493.33333333333337" y="124.50986050060834" text-anchor="middle" font-size="90%">punct</text><text class="dependency w5 w7" x="533.3333333333334" y="152.57839902054016" text-anchor="middle" font-size="90%">mark</text><text class="dependency w6 w7" x="573.3333333333334" y="171.1949159194239" text-anchor="middle" font-size="90%">advmod</text><text class="dependency w7 w2" x="413.33333333333337" y="87.7519219288" text-anchor="middle" font-size="90%">ccomp</text><text class="dependency w8 w7" x="653.3333333333334" y="171.1949159194239" text-anchor="middle" font-size="90%">xcomp</text><text class="dependency w9 w1" x="453.33333333333337" y="42.79872897985597" text-anchor="middle" font-size="90%">punct</text><path></path><path class="arrow w1 w0" d="M0,-1.471415478191356L1.6990442448471226,1.471415478191356 -1.6990442448471226,1.471415478191356Z" transform="translate(93.33333333333334, 178.1949159194239) rotate(-90)" fill="none" stroke="black" stroke-width="1.5"></path><path class="arrow w2 w1" d="M0,-1.471415478191356L1.6990442448471226,1.471415478191356 -1.6990442448471226,1.471415478191356Z" transform="translate(173.33333333333334, 178.1949159194239) rotate(-90)" fill="none" stroke="black" stroke-width="1.5"></path><path class="arrow w3 w2" d="M0,-1.471415478191356L1.6990442448471226,1.471415478191356 -1.6990442448471226,1.471415478191356Z" transform="translate(253.33333333333331, 178.1949159194239) rotate(-90)" fill="none" stroke="black" stroke-width="1.5"></path><path class="arrow w4 w7" d="M0,-1.471415478191356L1.6990442448471226,1.471415478191356 -1.6990442448471226,1.471415478191356Z" transform="translate(493.33333333333337, 131.50986050060834) rotate(90)" fill="none" stroke="black" stroke-width="1.5"></path><path class="arrow w5 w7" d="M0,-1.471415478191356L1.6990442448471226,1.471415478191356 -1.6990442448471226,1.471415478191356Z" transform="translate(533.3333333333334, 159.57839902054016) rotate(90)" fill="none" stroke="black" stroke-width="1.5"></path><path class="arrow w6 w7" d="M0,-1.471415478191356L1.6990442448471226,1.471415478191356 -1.6990442448471226,1.471415478191356Z" transform="translate(573.3333333333334, 178.1949159194239) rotate(90)" fill="none" stroke="black" stroke-width="1.5"></path><path class="arrow w7 w2" d="M0,-1.471415478191356L1.6990442448471226,1.471415478191356 -1.6990442448471226,1.471415478191356Z" transform="translate(413.33333333333337, 94.7519219288) rotate(-90)" fill="none" stroke="black" stroke-width="1.5"></path><path class="arrow w8 w7" d="M0,-1.471415478191356L1.6990442448471226,1.471415478191356 -1.6990442448471226,1.471415478191356Z" transform="translate(653.3333333333334, 178.1949159194239) rotate(-90)" fill="none" stroke="black" stroke-width="1.5"></path><path class="arrow w9 w1" d="M0,-1.471415478191356L1.6990442448471226,1.471415478191356 -1.6990442448471226,1.471415478191356Z" transform="translate(453.33333333333337, 49.79872897985597) rotate(-90)" fill="none" stroke="black" stroke-width="1.5"></path></svg>
